<svg width="32" height="32" viewBox="0 0 32 32" fill="none" xmlns="http://www.w3.org/2000/svg">
<path d="M22.25 5.5C19.57 5.5 17.26 6.77375 16 8.88375C14.74 6.77375 12.43 5.5 9.75 5.5C7.82789 5.50232 5.98517 6.2669 4.62603 7.62603C3.2669 8.98517 2.50232 10.8279 2.5 12.75C2.5 16.3237 4.75 20.0587 9.175 23.8487C11.2182 25.5873 13.4243 27.1248 15.7625 28.44C15.8355 28.4794 15.9171 28.5 16 28.5C16.0829 28.5 16.1645 28.4794 16.2375 28.44C18.5757 27.1248 20.7818 25.5873 22.825 23.8487C27.25 20.0587 29.5 16.3237 29.5 12.75C29.4977 10.8279 28.7331 8.98517 27.374 7.62603C26.0148 6.2669 24.1721 5.50232 22.25 5.5ZM16 27.4275C14.25 26.4275 3.5 20.0087 3.5 12.75C3.50198 11.093 4.1611 9.50445 5.33277 8.33278C6.50445 7.1611 8.09301 6.50198 9.75 6.5C12.3888 6.5 14.6063 7.91375 15.5375 10.1888C15.5752 10.2805 15.6393 10.3589 15.7216 10.4141C15.804 10.4693 15.9009 10.4988 16 10.4988C16.0991 10.4988 16.196 10.4693 16.2784 10.4141C16.3607 10.3589 16.4248 10.2805 16.4625 10.1888C17.3937 7.91375 19.6112 6.5 22.25 6.5C23.907 6.50198 25.4956 7.1611 26.6672 8.33278C27.8389 9.50445 28.498 11.093 28.5 12.75C28.5 20 17.75 26.4325 16 27.4275Z" fill="#F24E1E"/>
</svg>
