<svg width="32" height="32" viewBox="0 0 32 32" fill="none" xmlns="http://www.w3.org/2000/svg">
<path d="M28.2375 9.34747L22.6513 3.76122C22.4887 3.5987 22.2958 3.46978 22.0835 3.38182C21.8712 3.29387 21.6436 3.2486 21.4138 3.2486C21.1839 3.2486 20.9563 3.29387 20.744 3.38182C20.5317 3.46978 20.3388 3.5987 20.1763 3.76122L4.7625 19.1762C4.59967 19.3385 4.47056 19.5314 4.3826 19.7438C4.29464 19.9562 4.24958 20.1838 4.25 20.4137V26C4.25 26.4641 4.43438 26.9092 4.76257 27.2374C5.09075 27.5656 5.53587 27.75 6 27.75H11.5863C11.8161 27.7504 12.0438 27.7053 12.2562 27.6174C12.4686 27.5294 12.6615 27.4003 12.8238 27.2375L28.2375 11.8225C28.4 11.66 28.5289 11.467 28.6169 11.2547C28.7049 11.0424 28.7501 10.8148 28.7501 10.585C28.7501 10.3551 28.7049 10.1276 28.6169 9.91524C28.5289 9.7029 28.4 9.50998 28.2375 9.34747ZM6.06125 20L17 9.05997L19.4388 11.5L8.5 22.4387L6.06125 20ZM5.75 26V21.81L10.1888 26.25H6C5.9337 26.25 5.87011 26.2236 5.82323 26.1768C5.77634 26.1299 5.75 26.0663 5.75 26ZM12 25.9387L9.56125 23.5L20.5 12.56L22.9388 15L12 25.9387ZM27.1763 10.7625L24 13.9387L18.0613 7.99997L21.2375 4.82247C21.2607 4.79923 21.2883 4.78079 21.3186 4.76821C21.349 4.75563 21.3815 4.74915 21.4144 4.74915C21.4472 4.74915 21.4798 4.75563 21.5101 4.76821C21.5405 4.78079 21.568 4.79923 21.5913 4.82247L27.1763 10.4087C27.1995 10.4319 27.2179 10.4595 27.2305 10.4899C27.2431 10.5202 27.2496 10.5527 27.2496 10.5856C27.2496 10.6185 27.2431 10.651 27.2305 10.6813C27.2179 10.7117 27.1995 10.7393 27.1763 10.7625Z" fill="#8A9455"/>
</svg>
