<svg width="32" height="33" viewBox="0 0 32 33" fill="none" xmlns="http://www.w3.org/2000/svg">
<path d="M16.736 11.3333C16.3824 11.3333 16.0432 11.4738 15.7932 11.7239C15.5431 11.9739 15.4027 12.3131 15.4027 12.6667C15.4027 13.0203 15.5431 13.3594 15.7932 13.6095C16.0432 13.8595 16.3824 14 16.736 14H22.0693C22.423 14 22.7621 13.8595 23.0121 13.6095C23.2622 13.3594 23.4027 13.0203 23.4027 12.6667C23.4027 12.3131 23.2622 11.9739 23.0121 11.7239C22.7621 11.4738 22.423 11.3333 22.0693 11.3333H16.736ZM16.736 23.3333C16.3824 23.3333 16.0432 23.4738 15.7932 23.7239C15.5431 23.9739 15.4027 24.3131 15.4027 24.6667C15.4027 25.0203 15.5431 25.3594 15.7932 25.6095C16.0432 25.8595 16.3824 26 16.736 26H22.0693C22.423 26 22.7621 25.8595 23.0121 25.6095C23.2622 25.3594 23.4027 25.0203 23.4027 24.6667C23.4027 24.3131 23.2622 23.9739 23.0121 23.7239C22.7621 23.4738 22.423 23.3333 22.0693 23.3333H16.736Z" fill="white" fill-opacity="0.5"/>
<path d="M16.736 7.33334C16.3824 7.33334 16.0432 7.47382 15.7932 7.72387C15.5431 7.97392 15.4027 8.31305 15.4027 8.66668C15.4027 9.0203 15.5431 9.35944 15.7932 9.60949C16.0432 9.85953 16.3824 10 16.736 10H27.4027C27.7563 10 28.0954 9.85953 28.3455 9.60949C28.5955 9.35944 28.736 9.0203 28.736 8.66668C28.736 8.31305 28.5955 7.97392 28.3455 7.72387C28.0954 7.47382 27.7563 7.33334 27.4027 7.33334H16.736ZM16.736 19.3333C16.3824 19.3333 16.0432 19.4738 15.7932 19.7239C15.5431 19.9739 15.4027 20.3131 15.4027 20.6667C15.4027 21.0203 15.5431 21.3594 15.7932 21.6095C16.0432 21.8595 16.3824 22 16.736 22H27.4027C27.7563 22 28.0954 21.8595 28.3455 21.6095C28.5955 21.3594 28.736 21.0203 28.736 20.6667C28.736 20.3131 28.5955 19.9739 28.3455 19.7239C28.0954 19.4738 27.7563 19.3333 27.4027 19.3333H16.736Z" fill="white" fill-opacity="0.8"/>
<path d="M4.59733 6.00269C4.2437 6.00269 3.90457 6.14316 3.65452 6.39321C3.40447 6.64326 3.26399 6.9824 3.26399 7.33602V14.0027C3.26399 14.3563 3.40447 14.6954 3.65452 14.9455C3.90457 15.1955 4.2437 15.336 4.59733 15.336H11.264C11.6176 15.336 11.9568 15.1955 12.2068 14.9455C12.4568 14.6954 12.5973 14.3563 12.5973 14.0027V7.33602C12.5973 6.9824 12.4568 6.64326 12.2068 6.39321C11.9568 6.14316 11.6176 6.00269 11.264 6.00269H4.59733ZM4.59733 17.9974C4.2437 17.9974 3.90457 18.1378 3.65452 18.3879C3.40447 18.6379 3.26399 18.9771 3.26399 19.3307V25.9974C3.26399 26.351 3.40447 26.6901 3.65452 26.9402C3.90457 27.1902 4.2437 27.3307 4.59733 27.3307H11.264C11.6176 27.3307 11.9568 27.1902 12.2068 26.9402C12.4568 26.6901 12.5973 26.351 12.5973 25.9974V19.3307C12.5973 18.9771 12.4568 18.6379 12.2068 18.3879C11.9568 18.1378 11.6176 17.9974 11.264 17.9974H4.59733Z" fill="white"/>
</svg>
