<svg width="32" height="32" viewBox="0 0 32 32" fill="none" xmlns="http://www.w3.org/2000/svg">
<g clip-path="url(#clip0_101_2)">
<path fill-rule="evenodd" clip-rule="evenodd" d="M16 2.66666C8.63601 2.66666 2.66667 8.636 2.66667 16C2.66667 23.364 8.63601 29.3333 16 29.3333C23.364 29.3333 29.3333 23.364 29.3333 16C29.3333 8.636 23.364 2.66666 16 2.66666ZM11.3333 12.6667C11.3333 12.0538 11.454 11.447 11.6886 10.8808C11.9231 10.3146 12.2668 9.80017 12.7002 9.36683C13.1335 8.93349 13.648 8.58975 14.2141 8.35523C14.7803 8.1207 15.3872 8 16 8C16.6128 8 17.2197 8.1207 17.7859 8.35523C18.352 8.58975 18.8665 8.93349 19.2998 9.36683C19.7332 9.80017 20.0769 10.3146 20.3114 10.8808C20.546 11.447 20.6667 12.0538 20.6667 12.6667C20.6667 13.9043 20.175 15.0913 19.2998 15.9665C18.4247 16.8417 17.2377 17.3333 16 17.3333C14.7623 17.3333 13.5753 16.8417 12.7002 15.9665C11.825 15.0913 11.3333 13.9043 11.3333 12.6667ZM24.344 22.6453C23.3459 23.9008 22.0771 24.9146 20.6322 25.6109C19.1874 26.3073 17.6039 26.6682 16 26.6667C14.3961 26.6682 12.8126 26.3073 11.3678 25.6109C9.92294 24.9146 8.65409 23.9008 7.65601 22.6453C9.81734 21.0947 12.7667 20 16 20C19.2333 20 22.1827 21.0947 24.344 22.6453Z" fill="#BDBDBD"/>
</g>
<defs>
<clipPath id="clip0_101_2">
<rect width="32" height="32" fill="white"/>
</clipPath>
</defs>
</svg>
