<svg width="32" height="32" viewBox="0 0 32 32" fill="none" xmlns="http://www.w3.org/2000/svg">
<path d="M6.66667 5.724L26.276 25.3333L25.3333 26.276L5.72401 6.66667L6.66667 5.724ZM4.66667 21.3333C4.48986 21.3333 4.32029 21.4036 4.19527 21.5286C4.07024 21.6536 4.00001 21.8232 4.00001 22V23.3333C4.00001 23.5101 4.07024 23.6797 4.19527 23.8047C4.32029 23.9298 4.48986 24 4.66667 24H20.6667C20.8435 24 21.0131 24.0702 21.1381 24.1953C21.2631 24.3203 21.3333 24.4899 21.3333 24.6667C21.3333 24.8435 21.2631 25.013 21.1381 25.1381C21.0131 25.2631 20.8435 25.3333 20.6667 25.3333H4.66667C4.13624 25.3333 3.62753 25.1226 3.25246 24.7475C2.87739 24.3725 2.66667 23.8638 2.66667 23.3333V22C2.66667 21.4696 2.87739 20.9609 3.25246 20.5858C3.62753 20.2107 4.13624 20 4.66667 20H17C17.1768 20 17.3464 20.0702 17.4714 20.1953C17.5964 20.3203 17.6667 20.4899 17.6667 20.6667C17.6667 20.8435 17.5964 21.013 17.4714 21.1381C17.3464 21.2631 17.1768 21.3333 17 21.3333H4.66667ZM26.6667 21.3333C26.6667 21.1565 26.5964 20.987 26.4714 20.8619C26.3464 20.7369 26.1768 20.6667 26 20.6667C25.8232 20.6667 25.6536 20.7369 25.5286 20.8619C25.4036 20.987 25.3333 21.1565 25.3333 21.3333V22.6667C25.3333 22.8435 25.4036 23.013 25.5286 23.1381C25.6536 23.2631 25.8232 23.3333 26 23.3333C26.1768 23.3333 26.3464 23.2631 26.4714 23.1381C26.5964 23.013 26.6667 22.8435 26.6667 22.6667V21.3333ZM22.6667 11.3333C22.1362 11.3333 21.6275 11.544 21.2525 11.9191C20.8774 12.2942 20.6667 12.8029 20.6667 13.3333V14.5453C20.6667 15.0758 20.8774 15.5845 21.2525 15.9595C21.6275 16.3346 22.1362 16.5453 22.6667 16.5453H24.6667C25.1971 16.5453 25.7058 16.756 26.0809 17.1311C26.456 17.5062 26.6667 18.0149 26.6667 18.5453V18.6667C26.6667 18.8435 26.5964 19.013 26.4714 19.1381C26.3464 19.2631 26.1768 19.3333 26 19.3333C25.8232 19.3333 25.6536 19.2631 25.5286 19.1381C25.4036 19.013 25.3333 18.8435 25.3333 18.6667V18.5453C25.3333 18.3685 25.2631 18.199 25.1381 18.0739C25.0131 17.9489 24.8435 17.8787 24.6667 17.8787H22.6667C21.7826 17.8787 20.9348 17.5275 20.3096 16.9024C19.6845 16.2772 19.3333 15.4294 19.3333 14.5453V13.3333C19.3333 12.4493 19.6845 11.6014 20.3096 10.9763C20.9348 10.3512 21.7826 10 22.6667 10C22.8435 10 23.0131 10.0702 23.1381 10.1953C23.2631 10.3203 23.3333 10.4899 23.3333 10.6667C23.3333 10.8435 23.2631 11.013 23.1381 11.1381C23.0131 11.2631 22.8435 11.3333 22.6667 11.3333Z" fill="#9BA0A6"/>
<path d="M25.3333 12.6667C25.1565 12.6667 24.987 12.7369 24.8619 12.8619C24.7369 12.9869 24.6667 13.1565 24.6667 13.3333C24.6667 13.5101 24.7369 13.6797 24.8619 13.8047C24.987 13.9298 25.1565 14 25.3333 14C26.0406 14 26.7189 14.2809 27.219 14.781C27.7191 15.2811 28 15.9594 28 16.6667V18.6667C28 18.8435 28.0702 19.013 28.1953 19.1381C28.3203 19.2631 28.4899 19.3333 28.6667 19.3333C28.8435 19.3333 29.0131 19.2631 29.1381 19.1381C29.2631 19.013 29.3333 18.8435 29.3333 18.6667V16.6667C29.3334 16.0119 29.1727 15.3671 28.8653 14.7889C28.558 14.2108 28.1134 13.7169 27.5707 13.3507C27.9133 13.0753 28.1897 12.7266 28.3794 12.3301C28.5691 11.9336 28.6673 11.4995 28.6667 11.06V9.99999C28.6667 9.11593 28.3155 8.26809 27.6904 7.64297C27.0652 7.01785 26.2174 6.66666 25.3333 6.66666C25.1565 6.66666 24.987 6.73689 24.8619 6.86192C24.7369 6.98694 24.6667 7.15651 24.6667 7.33332C24.6667 7.51013 24.7369 7.6797 24.8619 7.80473C24.987 7.92975 25.1565 7.99999 25.3333 7.99999C25.8638 7.99999 26.3725 8.2107 26.7476 8.58578C27.1226 8.96085 27.3333 9.46956 27.3333 9.99999V11.06C27.3333 11.4861 27.1641 11.8948 26.8628 12.1961C26.5614 12.4974 26.1528 12.6667 25.7267 12.6667H25.3333ZM29.3333 21.3333C29.3333 21.1565 29.2631 20.9869 29.1381 20.8619C29.0131 20.7369 28.8435 20.6667 28.6667 20.6667C28.4899 20.6667 28.3203 20.7369 28.1953 20.8619C28.0702 20.9869 28 21.1565 28 21.3333V24C28 24.1768 28.0702 24.3464 28.1953 24.4714C28.3203 24.5964 28.4899 24.6667 28.6667 24.6667C28.8435 24.6667 29.0131 24.5964 29.1381 24.4714C29.2631 24.3464 29.3333 24.1768 29.3333 24V21.3333Z" fill="#9BA0A6"/>
</svg>
