<svg width="32" height="32" viewBox="0 0 32 32" fill="none" xmlns="http://www.w3.org/2000/svg">
<path d="M9.40706 13.4978V8M14.9049 13.4978V8M20.4027 13.4978V8.54978M8.32069 21.1948C6.75931 21.1948 5.97862 21.1948 5.49371 20.711C5.0088 20.2283 5.0088 19.4509 5.0088 17.8961V11.2987C5.0088 9.74391 5.0088 8.96652 5.49371 8.48381C5.97862 8.0011 6.75931 8 8.32069 8H16.1111C19.9299 8 21.8398 8 23.3023 8.77629C24.3776 9.34807 25.2749 10.2057 25.8928 11.2525C26.7329 12.6743 26.8121 14.5743 26.9704 18.3755C27.0144 19.4003 27.0364 19.9127 26.8352 20.2997C26.6878 20.5856 26.4613 20.8209 26.1809 20.9793C25.8005 21.1948 25.2859 21.1948 24.2567 21.1948H23.7014M12.7058 21.1948H19.3031" stroke="#9BA0A6" stroke-width="2" stroke-linecap="round" stroke-linejoin="round"/>
<path d="M5 13.499H19.699C20.3884 13.499 20.6226 13.9025 21.1504 14.5359C21.7574 15.1296 22.1675 15.5464 22.7338 15.631C23.5255 15.7498 26.4547 15.6904 26.4547 15.6904M10.5066 23.3939C11.0899 23.3939 11.6492 23.1623 12.0616 22.7498C12.4741 22.3374 12.7057 21.7781 12.7057 21.1948C12.7057 20.6116 12.4741 20.0522 12.0616 19.6398C11.6492 19.2274 11.0899 18.9957 10.5066 18.9957C9.92338 18.9957 9.36402 19.2274 8.9516 19.6398C8.53918 20.0522 8.30749 20.6116 8.30749 21.1948C8.30749 21.7781 8.53918 22.3374 8.9516 22.7498C9.36402 23.1623 9.92338 23.3939 10.5066 23.3939ZM21.5023 23.3939C22.0855 23.3939 22.6449 23.1623 23.0573 22.7498C23.4697 22.3374 23.7014 21.7781 23.7014 21.1948C23.7014 20.6116 23.4697 20.0522 23.0573 19.6398C22.6449 19.2274 22.0855 18.9957 21.5023 18.9957C20.919 18.9957 20.3597 19.2274 19.9472 19.6398C19.5348 20.0522 19.3031 20.6116 19.3031 21.1948C19.3031 21.7781 19.5348 22.3374 19.9472 22.7498C20.3597 23.1623 20.919 23.3939 21.5023 23.3939Z" stroke="#9BA0A6" stroke-width="2" stroke-linecap="round" stroke-linejoin="round"/>
</svg>
