<svg width="32" height="32" viewBox="0 0 32 32" fill="none" xmlns="http://www.w3.org/2000/svg">
<path d="M6.66666 13.7333C6.66666 12.6027 6.66666 11.7933 6.71999 11.16C6.77066 10.5347 6.86666 10.1387 7.02933 9.81999L5.84266 9.21466C5.56799 9.75199 5.44799 10.344 5.38933 11.052C5.33333 11.752 5.33333 12.6253 5.33333 13.7333H6.66666ZM6.66666 15.3333V13.7333H5.33333V15.3333H6.66666ZM5.33333 15.3333V22H6.66666V15.3333H5.33333ZM5.33333 22V24.552H6.66666V22H5.33333ZM5.33333 24.552C5.33333 25.68 6.69733 26.2453 7.496 25.4467L6.55333 24.504C6.5648 24.4963 6.57739 24.4905 6.59066 24.4867L6.62533 24.4893C6.6364 24.4956 6.6458 24.5045 6.65276 24.5151C6.65971 24.5258 6.66402 24.538 6.66533 24.5507L5.33333 24.552ZM7.496 25.4467L10.0813 22.8613L9.13866 21.9187L6.55199 24.5053L7.496 25.4467ZM19.6 21.3333H10.552V22.6667H19.6V21.3333ZM23.5133 20.9707C23.1947 21.1333 22.7987 21.2293 22.1733 21.2813C21.5387 21.3333 20.7307 21.3333 19.6 21.3333V22.6667C20.7093 22.6667 21.5813 22.6667 22.2813 22.6093C22.9893 22.552 23.5813 22.432 24.1187 22.1587L23.5133 20.9707ZM24.9693 19.5133C24.6498 20.1402 24.1402 20.6511 23.5133 20.9707L24.1187 22.1587C24.9971 21.7112 25.7112 20.9971 26.1587 20.1187L24.9693 19.5133ZM25.3333 15.6C25.3333 16.7307 25.3333 17.54 25.28 18.1733C25.2293 18.7987 25.1333 19.1947 24.9693 19.5133L26.1587 20.1187C26.432 19.5813 26.552 18.9893 26.6093 18.2813C26.6667 17.5813 26.6667 16.708 26.6667 15.6H25.3333ZM25.3333 13.7333V15.6H26.6667V13.7333H25.3333ZM24.9693 9.81999C25.132 10.1387 25.2293 10.5347 25.2813 11.16C25.3333 11.7933 25.3333 12.6027 25.3333 13.7333H26.6667C26.6667 12.624 26.6667 11.752 26.6093 11.052C26.552 10.344 26.432 9.75199 26.1587 9.21466L24.9693 9.81999ZM23.5133 8.36266C24.1404 8.68252 24.65 9.19266 24.9693 9.81999L26.1587 9.21466C25.7112 8.33626 24.9971 7.62212 24.1187 7.17466L23.5133 8.36266ZM19.6 7.99999C20.7307 7.99999 21.5387 7.99999 22.1733 8.05332C22.7987 8.10399 23.1947 8.19999 23.5133 8.36266L24.1187 7.17466C23.5813 6.89999 22.9893 6.78132 22.2813 6.72266C21.5813 6.66666 20.708 6.66666 19.6 6.66666V7.99999ZM12.4 7.99999H19.6V6.66666H12.4V7.99999ZM8.48666 8.36266C8.80533 8.20132 9.20133 8.10399 9.82666 8.05199C10.46 7.99999 11.2693 7.99999 12.4 7.99999V6.66666C11.2907 6.66666 10.4187 6.66666 9.71866 6.72399C9.01066 6.78132 8.41866 6.90132 7.88133 7.17466L8.48666 8.36266ZM7.02933 9.81999C7.34896 9.19246 7.85913 8.68229 8.48666 8.36266L7.88133 7.17466C7.00313 7.62177 6.29035 8.33675 5.84266 9.21466L7.02933 9.81999ZM10.0813 22.8613C10.2063 22.7367 10.3755 22.6667 10.552 22.6667V21.3333C10.0217 21.3338 9.51337 21.5448 9.13866 21.92L10.0813 22.8613Z" fill="#333333"/>
<path d="M11.3333 12.6667H20.6667M11.3333 16.6667H18" stroke="#333333" stroke-width="1.33333" stroke-linecap="round" stroke-linejoin="round"/>
</svg>
