<svg width="32" height="32" viewBox="0 0 32 32" fill="none" xmlns="http://www.w3.org/2000/svg">
<path d="M5.7875 1.3125C3.7875 1.3125 1.785 2.8125 1.785 5.8125L5.7875 13.8125L9.7875 5.8125C9.7875 2.8125 7.7875 1.3125 5.7875 1.3125ZM23.4313 3.75C23 3.76812 22.5813 3.85 22.2313 3.925L22.4688 5.025C22.8188 4.94688 23.1813 4.8975 23.4875 4.875L23.4313 3.75ZM5.7875 3.8125C6.89375 3.8125 7.7875 4.70812 7.7875 5.8125C7.7875 6.91875 6.89375 7.8125 5.7875 7.8125C4.68313 7.8125 3.7875 6.91875 3.7875 5.8125C3.7875 4.70812 4.68313 3.8125 5.7875 3.8125ZM24.675 3.825L24.4875 4.93125C24.7938 4.99563 25.1 5.07625 25.3688 5.2375L25.9125 4.25C25.5313 4.04688 25.1063 3.86438 24.675 3.825ZM21.0813 4.24375C20.7 4.3925 20.3188 4.52563 19.9938 4.65625L20.4375 5.6875C20.7813 5.54125 21.1438 5.41375 21.45 5.30625L21.0813 4.24375ZM26.9375 5.08125L26.0813 5.8125C26.3063 6.07 26.4813 6.3875 26.6188 6.64375L27.625 6.1375C27.4125 5.72812 27.225 5.41813 26.9375 5.08125ZM18.95 5.1375C18.5688 5.33187 18.2563 5.505 17.9188 5.675L18.4688 6.6625C18.7938 6.475 19.15 6.29375 19.4375 6.15L18.95 5.1375ZM16.9313 6.25625C16.6 6.45 16.275 6.64375 15.9563 6.85625L16.5688 7.79375C16.875 7.59375 17.1938 7.40625 17.5063 7.21875L16.9313 6.25625ZM28.0125 7.375C27.6438 7.4375 27.2688 7.48125 26.9 7.525C26.925 7.8375 26.9063 8.175 26.8438 8.4375L27.9375 8.69375C28 8.24375 28.0563 7.78125 28.0125 7.375ZM15.0063 7.48125C14.6938 7.69375 14.3875 7.9125 14.075 8.125L14.725 9.04375C15.025 8.825 15.3313 8.61875 15.6375 8.40625L15.0063 7.48125ZM13.1563 8.8C12.8438 9.025 12.5188 9.275 12.25 9.48125L12.9313 10.375C13.275 10.125 13.5125 9.9375 13.825 9.70625L13.1563 8.8ZM26.4688 9.3C26.2813 9.5875 26.0625 9.875 25.8438 10.0938L26.6625 10.875C26.9313 10.5563 27.2188 10.2312 27.4188 9.90625L26.4688 9.3ZM11.3563 10.1812C11.05 10.4187 10.7438 10.6625 10.475 10.8875L11.1875 11.7563C11.4813 11.5125 11.7813 11.2625 12.0563 11.0625L11.3563 10.1812ZM25.0688 10.8125C24.7813 11.0438 24.4813 11.2688 24.2063 11.4563L24.85 12.3813C25.1813 12.1563 25.5063 11.9125 25.7875 11.6875L25.0688 10.8125ZM9.60625 11.6187C9.3125 11.8562 9.03125 12.1063 8.74375 12.35L9.475 13.2063C9.75625 12.9625 10.0375 12.7187 10.325 12.4812L9.60625 11.6187ZM23.2875 12.0562C22.9688 12.2437 22.6375 12.4375 22.3375 12.6L22.875 13.5938C23.2125 13.3875 23.5938 13.2063 23.875 13.0188L23.2875 12.0562ZM7.8875 13.0938C7.60625 13.3438 7.33125 13.5938 7.05 13.85L7.80625 14.6875C8.08125 14.4375 8.3625 14.1875 8.6375 13.9375L7.8875 13.0938ZM21.3563 13.1187C21.025 13.2812 20.6938 13.45 20.3625 13.6125L20.8438 14.625C21.2313 14.4375 21.5188 14.2812 21.8688 14.1187L21.3563 13.1187ZM19.3563 14.0813C19.0125 14.2375 18.6813 14.3875 18.3313 14.5312L18.7875 15.5625C19.1313 15.4125 19.475 15.2563 19.8188 15.1L19.3563 14.0813ZM6.225 14.625C5.90625 14.9062 5.68438 15.125 5.39375 15.4062L6.1875 16.2188C6.48125 15.9375 6.71875 15.6938 6.99375 15.4563L6.225 14.625ZM17.3063 14.9875C16.9625 15.1313 16.6188 15.2813 16.275 15.425L16.7125 16.4688C17.0625 16.325 17.4063 16.175 17.75 16.025L17.3063 14.9875ZM15.2375 15.8625C14.8938 16.0125 14.55 16.1625 14.2 16.3L14.6375 17.3438C14.9813 17.2 15.3313 17.05 15.675 16.9062L15.2375 15.8625ZM26.7875 16.3125C24.7875 16.3125 22.7875 17.8125 22.7875 20.8125L26.7875 28.8125L30.7875 20.8125C30.7875 17.8125 28.7875 16.3125 26.7875 16.3125ZM13.1625 16.7375C12.8063 16.9 12.4313 17.05 12.125 17.1812L12.5688 18.2188C12.9375 18.0625 13.2875 17.9125 13.6 17.775L13.1625 16.7375ZM11.0875 17.625C10.75 17.7812 10.3563 17.9562 10.0563 18.0938L10.5188 19.1187C10.8875 18.9562 11.2125 18.7938 11.5375 18.6562L11.0875 17.625ZM9.025 18.5625C8.675 18.7313 8.3125 18.9062 8 19.0625L8.50625 20.0688C8.84375 19.8938 9.19375 19.7312 9.5 19.5812L9.025 18.5625ZM26.7875 18.8125C27.8938 18.8125 28.7875 19.7062 28.7875 20.8125C28.7875 21.9188 27.8938 22.8125 26.7875 22.8125C25.6813 22.8125 24.7875 21.9188 24.7875 20.8125C24.7875 19.7062 25.6813 18.8125 26.7875 18.8125ZM6.9875 19.5812C6.65625 19.7625 6.325 19.95 5.9875 20.1437L6.55 21.1187C6.86875 20.9312 7.19375 20.7562 7.51875 20.5812L6.9875 19.5812ZM5.00625 20.75C4.65563 20.95 4.31688 21.2188 4.025 21.4125L4.70625 22.3125C5.01688 22.0875 5.35125 21.8563 5.61875 21.6938L5.00625 20.75ZM3.1375 22.1625C2.8375 22.4375 2.54188 22.7562 2.3125 23.025L3.16875 23.7563C3.40938 23.4625 3.61875 23.2437 3.9 22.9937L3.1375 22.1625ZM16.75 22.2437L16.85 23.3625C17.175 23.3062 17.5 23.3437 17.825 23.3937L18.0188 22.2875C17.6063 22.225 17.1688 22.1812 16.75 22.2437ZM14.425 22.8687L14.85 23.9125C15.175 23.7688 15.5125 23.6562 15.8563 23.55C15.7375 23.1937 15.65 22.8313 15.5563 22.4688C15.1625 22.5812 14.7688 22.7312 14.425 22.8687ZM19.2688 22.8125L18.6313 23.7375C18.8938 23.9312 19.15 24.1375 19.3563 24.3937L20.2063 23.6562C19.8875 23.3313 19.6438 23.025 19.2688 22.8125ZM13.3625 23.375C13.0188 23.55 12.6875 23.75 12.3563 23.9438L12.925 24.9125C13.25 24.7375 13.5688 24.5312 13.8875 24.3625L13.3625 23.375ZM1.62563 24.0625C1.43688 24.4688 1.28375 24.9063 1.2125 25.2938L2.31875 25.4875C2.38625 25.1312 2.48313 24.875 2.625 24.5688C2.28188 24.4188 1.95438 24.2375 1.62563 24.0625ZM11.3813 24.55C11.0625 24.7562 10.75 24.9625 10.4375 25.175L11.0625 26.1125C11.375 25.9062 11.6813 25.6937 11.9938 25.4875L11.3813 24.55ZM20.925 24.625L19.9813 25.2375C20.1813 25.5375 20.375 25.85 20.5563 26.1688L21.5313 25.6063C21.3125 25.2563 21.1563 24.9437 20.925 24.625ZM9.50625 25.8125C9.19375 26.0187 8.88125 26.2188 8.575 26.4375L9.2 27.375C9.5 27.1562 9.81875 26.95 10.1375 26.7375L9.50625 25.8125ZM2.33125 26.4062C1.96938 26.4813 1.60438 26.5437 1.24063 26.6125C1.30625 27.05 1.48188 27.475 1.64063 27.8125L2.65625 27.325C2.52063 27.0125 2.39188 26.6875 2.33125 26.4062ZM22.0875 26.5812L21.1125 27.1437C21.3063 27.4812 21.5313 27.8438 21.7125 28.1313L22.6563 27.525C22.4438 27.1937 22.2625 26.8812 22.0875 26.5812ZM7.65 27.05C7.3375 27.2437 7.03125 27.4312 6.70625 27.6125L7.2625 28.5938C7.59375 28.4 7.925 28.2062 8.24375 28L7.65 27.05ZM3.19375 28.0688L2.425 28.8937C2.7725 29.225 3.20125 29.4438 3.66875 29.5438L3.91875 28.45C3.64125 28.3938 3.38188 28.2563 3.19375 28.0688ZM5.75625 28.0875C5.44313 28.2312 5.11813 28.3438 4.78125 28.4125L5.0375 29.5125C5.43875 29.4313 5.81625 29.2812 6.19375 29.125L5.75625 28.0875ZM23.275 28.3875L22.4063 29.0938C22.675 29.425 23.0063 29.7438 23.2938 29.9688L23.9875 29.0812C23.7125 28.8687 23.475 28.6125 23.275 28.3875ZM24.7813 29.4813L24.5 30.575C24.9938 30.675 25.3625 30.7063 25.825 30.6562L25.6875 29.5375C25.3813 29.5875 25.0813 29.5563 24.7813 29.4813Z" fill="#9BA0A6"/>
</svg>
