<svg width="32" height="32" viewBox="0 0 32 32" fill="none" xmlns="http://www.w3.org/2000/svg">
<path d="M7.14999 11.8784C7.14999 8.58384 8.35733 6.36323 10.0228 4.95448C11.7092 3.52794 13.9273 2.88333 16 2.88333C18.0727 2.88333 20.2908 3.52794 21.9772 4.95448C23.6427 6.36323 24.85 8.58384 24.85 11.8784C24.85 12.9678 24.4253 14.4282 23.6898 16.1099C22.9625 17.7727 21.966 19.5754 20.8982 21.325C19.1093 24.2562 17.149 26.992 15.9766 28.6166C14.7515 27.0033 12.7855 24.2089 11.0137 21.238C9.96147 19.4735 8.98697 17.662 8.27782 16.0094C7.55962 14.3357 7.14999 12.9062 7.14999 11.8784Z" fill="#F5F5F5" stroke="#8A9455" stroke-width="1.5"/>
<path d="M15.9998 11.3333C15.9998 13.0492 15.0276 14.4622 13.7777 14.6464V17.1667H18.222V14.6794H16.9089C16.7042 14.6795 16.5054 14.6105 16.3448 14.4835C16.1841 14.3565 16.0711 14.179 16.0239 13.9798C15.9767 13.7805 15.9982 13.5712 16.0848 13.3857C16.1714 13.2001 16.3181 13.0493 16.5012 12.9575C16.4202 12.6854 16.444 12.3928 16.568 12.1374C16.6919 11.882 16.907 11.6823 17.1709 11.5775C17.1249 11.3777 17.1246 11.17 17.1699 10.9701C17.2153 10.7701 17.3052 10.5829 17.4329 10.4225C17.5606 10.262 17.7228 10.1325 17.9076 10.0434C18.0923 9.95438 18.2947 9.90813 18.4997 9.90813C18.7048 9.90813 18.9072 9.95438 19.0919 10.0434C19.2766 10.1325 19.4388 10.262 19.5665 10.4225C19.6942 10.5829 19.7841 10.7701 19.8295 10.9701C19.8749 11.17 19.8745 11.3777 19.8286 11.5775C20.0924 11.6823 20.3075 11.882 20.4314 12.1374C20.5554 12.3928 20.5792 12.6854 20.4983 12.9575C20.6813 13.0493 20.828 13.2001 20.9146 13.3857C21.0013 13.5712 21.0227 13.7805 20.9755 13.9798C20.9283 14.179 20.8153 14.3565 20.6547 14.4835C20.494 14.6105 20.2952 14.6795 20.0905 14.6794H18.7775V17.1667H20.583C20.6935 17.1667 20.7995 17.2106 20.8776 17.2887C20.9557 17.3668 20.9996 17.4728 20.9996 17.5833C20.9996 17.6938 20.9557 17.7998 20.8776 17.878C20.7995 17.9561 20.6935 18 20.583 18H11.4167C11.3061 18 11.2002 17.9561 11.122 17.878C11.0439 17.7998 11 17.6938 11 17.5833C11 17.4728 11.0439 17.3668 11.122 17.2887C11.2002 17.2106 11.3061 17.1667 11.4167 17.1667H13.2221V14.6464C11.9722 14.4622 11 13.0492 11 11.3333C11 9.4925 12.1194 8 13.4999 8C14.8804 8 15.9998 9.4925 15.9998 11.3333Z" fill="#8A9455"/>
</svg>
