<svg width="32" height="32" viewBox="0 0 32 32" fill="none" xmlns="http://www.w3.org/2000/svg">
<path d="M29.2862 14.3562L23.6612 19.21L25.375 26.4687C25.4696 26.8628 25.4452 27.276 25.305 27.6562C25.1648 28.0364 24.9151 28.3666 24.5874 28.6049C24.2597 28.8433 23.8687 28.9792 23.4638 28.9954C23.0589 29.0117 22.6583 28.9076 22.3125 28.6962L16 24.8112L9.68375 28.6962C9.33803 28.9064 8.93788 29.0095 8.53367 28.9926C8.12947 28.9758 7.73928 28.8397 7.41225 28.6016C7.08522 28.3634 6.83597 28.0338 6.69588 27.6543C6.55579 27.2748 6.53113 26.8623 6.625 26.4687L8.345 19.21L2.72 14.3562C2.41412 14.0919 2.1929 13.7433 2.08398 13.3539C1.97505 12.9646 1.98324 12.5518 2.10752 12.1671C2.2318 11.7824 2.46666 11.4428 2.78278 11.1908C3.0989 10.9387 3.48227 10.7854 3.885 10.75L11.26 10.155L14.105 3.27C14.259 2.89477 14.5211 2.57381 14.858 2.34792C15.1948 2.12203 15.5913 2.00142 15.9969 2.00142C16.4025 2.00142 16.7989 2.12203 17.1358 2.34792C17.4727 2.57381 17.7348 2.89477 17.8887 3.27L20.7325 10.155L28.1075 10.75C28.511 10.7841 28.8955 10.9366 29.2128 11.1883C29.53 11.4399 29.766 11.7796 29.891 12.1648C30.0161 12.55 30.0247 12.9635 29.9158 13.3536C29.8069 13.7436 29.5853 14.0928 29.2787 14.3575L29.2862 14.3562Z" fill="#A39A6D"/>
</svg>
