<svg width="32" height="32" viewBox="0 0 32 32" fill="none" xmlns="http://www.w3.org/2000/svg">
<path d="M30.0612 17.3538L17.6462 4.93875C17.5073 4.79926 17.3421 4.68867 17.1601 4.61337C16.9782 4.53806 16.7831 4.49954 16.5862 4.5H5C4.86739 4.5 4.74021 4.55268 4.64644 4.64645C4.55268 4.74022 4.5 4.8674 4.5 5V16.5863C4.49953 16.7832 4.53806 16.9782 4.61336 17.1601C4.68867 17.3421 4.79926 17.5073 4.93875 17.6463L17.3537 30.0613C17.4931 30.2011 17.6587 30.312 17.841 30.3878C18.0233 30.4635 18.2188 30.5024 18.4162 30.5024C18.6137 30.5024 18.8091 30.4635 18.9915 30.3878C19.1738 30.312 19.3394 30.2011 19.4787 30.0613L30.065 19.475C30.2048 19.3356 30.3158 19.1701 30.3915 18.9877C30.4672 18.8054 30.5062 18.6099 30.5062 18.4125C30.5062 18.2151 30.4672 18.0196 30.3915 17.8373C30.3158 17.6549 30.2048 17.4894 30.065 17.35L30.0612 17.3538ZM29.3537 18.7675L18.7675 29.3538C18.6738 29.4473 18.5468 29.4998 18.4144 29.4998C18.282 29.4998 18.155 29.4473 18.0612 29.3538L5.64625 16.9388C5.55281 16.8452 5.50022 16.7185 5.5 16.5863V5.5H16.5862C16.7185 5.50023 16.8452 5.55282 16.9387 5.64625L29.3537 18.0613C29.4473 18.155 29.4998 18.282 29.4998 18.4144C29.4998 18.5468 29.4473 18.6738 29.3537 18.7675ZM11.5 10.5C11.5 10.6978 11.4413 10.8911 11.3315 11.0556C11.2216 11.22 11.0654 11.3482 10.8827 11.4239C10.7 11.4996 10.4989 11.5194 10.3049 11.4808C10.1109 11.4422 9.93274 11.347 9.79289 11.2071C9.65304 11.0673 9.5578 10.8891 9.51921 10.6951C9.48063 10.5011 9.50043 10.3 9.57612 10.1173C9.6518 9.93459 9.77998 9.77842 9.94443 9.66853C10.1089 9.55865 10.3022 9.5 10.5 9.5C10.7652 9.5 11.0196 9.60536 11.2071 9.7929C11.3946 9.98043 11.5 10.2348 11.5 10.5Z" fill="#9BA0A6"/>
</svg>
