<svg width="32" height="32" viewBox="0 0 32 32" fill="none" xmlns="http://www.w3.org/2000/svg">
<path d="M4.07267 16C4.36425 13.3601 5.52675 10.8925 7.37667 8.98667L9.414 11.0233L10.3573 10.0807L8.35667 8.08067C10.3297 6.44682 12.7754 5.49003 15.3333 5.35133V8.66667H16.6667V5.35133C19.2247 5.48956 21.6706 6.4464 23.6433 8.08067L21.7233 10L22.6667 10.9427L24.6233 8.986C26.4734 10.892 27.6359 13.3598 27.9273 16H25.1227V17.3333H28C28.003 20.114 27.0348 22.8085 25.2627 24.9513L22.9827 22.6713L22.0393 23.614L24.3573 25.932L24.3493 25.94L25.2767 26.898C26.5615 25.6572 27.5829 24.1701 28.2799 22.5255C28.9769 20.881 29.3352 19.1128 29.3333 17.3267C29.3333 9.96667 23.3633 4 16 4C8.63667 4 2.66667 9.966 2.66667 17.3267C2.66243 20.8397 4.0504 24.2114 6.52667 26.7033L7.47333 25.7653L7.46067 25.752L9.46467 23.7487L8.522 22.806L6.576 24.7513C4.90507 22.6401 3.99723 20.0258 4 17.3333H6.702V16H4.07267Z" fill="#9BA0A6"/>
<path fill-rule="evenodd" clip-rule="evenodd" d="M15.3307 15.9227L13.7507 25.136C13.732 25.3974 13.8093 25.6567 13.968 25.8654L15.25 27.34C16 27.6667 16.3333 27.6667 16.962 27.34L18.2433 25.8654C18.402 25.6567 18.4793 25.3974 18.4607 25.136L16.8733 15.9347C16.7767 14.6034 15.4267 14.5914 15.3307 15.9227ZM17.108 25.1394L16.1027 19.3114L15.1027 25.1394L16.0433 26.2207C16.0947 26.238 16.126 26.246 16.1433 26.2494L17.108 25.1394Z" fill="#9BA0A6"/>
</svg>
