<svg width="32" height="32" viewBox="0 0 32 32" fill="none" xmlns="http://www.w3.org/2000/svg">
<path opacity="0.2" d="M18 6.5C18 6.00555 18.1466 5.5222 18.4213 5.11108C18.696 4.69995 19.0865 4.37952 19.5433 4.1903C20.0001 4.00108 20.5028 3.95157 20.9877 4.04804C21.4727 4.1445 21.9181 4.3826 22.2678 4.73223C22.6174 5.08187 22.8555 5.52732 22.952 6.01228C23.0484 6.49723 22.9989 6.99989 22.8097 7.45671C22.6205 7.91353 22.3 8.30397 21.8889 8.57868C21.4778 8.85338 20.9945 9 20.5 9C19.837 9 19.2011 8.73661 18.7322 8.26777C18.2634 7.79893 18 7.16304 18 6.5ZM24.18 13.49C24.0915 13.3405 23.9656 13.2166 23.8147 13.1306C23.6638 13.0445 23.4931 12.9992 23.3194 12.9992C23.1457 12.9992 22.9749 13.0445 22.824 13.1306C22.6731 13.2166 22.5472 13.3405 22.4587 13.49L18.3337 20.4588L15.7087 16H6.29375L1 25H31L24.18 13.49Z" fill="#8A9455"/>
<path d="M20.5 10C21.1922 10 21.8689 9.79473 22.4445 9.41015C23.0201 9.02556 23.4687 8.47894 23.7336 7.83939C23.9985 7.19985 24.0678 6.49612 23.9327 5.81719C23.7977 5.13825 23.4644 4.51461 22.9749 4.02513C22.4854 3.53564 21.8617 3.2023 21.1828 3.06725C20.5039 2.9322 19.8001 3.00152 19.1606 3.26642C18.5211 3.53133 17.9744 3.97993 17.5899 4.55551C17.2053 5.13108 17 5.80777 17 6.5C17 7.42826 17.3687 8.3185 18.0251 8.97487C18.6815 9.63125 19.5717 10 20.5 10ZM20.5 5C20.7967 5 21.0867 5.08798 21.3333 5.2528C21.58 5.41762 21.7723 5.65189 21.8858 5.92598C21.9993 6.20007 22.0291 6.50167 21.9712 6.79264C21.9133 7.08361 21.7704 7.35088 21.5607 7.56066C21.3509 7.77044 21.0836 7.9133 20.7926 7.97118C20.5017 8.02906 20.2001 7.99935 19.926 7.88582C19.6519 7.77229 19.4176 7.58003 19.2528 7.33336C19.088 7.08668 19 6.79667 19 6.5C19 6.10218 19.158 5.72065 19.4393 5.43934C19.7206 5.15804 20.1022 5 20.5 5ZM31.86 24.49L25.04 12.98C24.8641 12.6802 24.6125 12.4318 24.3104 12.2598C24.0083 12.0878 23.6664 11.9982 23.3187 12C22.9713 11.9982 22.6295 12.0878 22.3276 12.2598C22.0257 12.4318 21.7743 12.6802 21.5987 12.98L18.3287 18.5L12.7237 8.9875C12.5471 8.68733 12.2952 8.43848 11.9928 8.26559C11.6905 8.09269 11.3483 8.00174 11 8.00174C10.6517 8.00174 10.3095 8.09269 10.0071 8.26559C9.70481 8.43848 9.45286 8.68733 9.27625 8.9875L0.138745 24.4925C0.0493039 24.6444 0.00158389 24.8172 0.000418594 24.9934C-0.000746703 25.1696 0.0446841 25.343 0.132109 25.4961C0.219535 25.6491 0.345849 25.7763 0.498258 25.8648C0.650667 25.9533 0.823756 25.9999 0.999995 26H31C31.1765 26 31.3499 25.9532 31.5024 25.8645C31.655 25.7758 31.7814 25.6483 31.8688 25.4949C31.9561 25.3415 32.0013 25.1678 31.9998 24.9913C31.9982 24.8148 31.95 24.6418 31.86 24.49ZM11 10L13.9462 15H8.05375L11 10ZM2.74999 24L6.875 17H15.125L19.25 24H2.74999ZM21.5712 24L19.4887 20.465L23.3187 14L29.25 24H21.5712Z" fill="#8A9455"/>
</svg>
