<svg width="32" height="32" viewBox="0 0 32 32" fill="none" xmlns="http://www.w3.org/2000/svg">
<path d="M17.5 22C17.5 22.1326 17.4473 22.2598 17.3536 22.3536C17.2598 22.4473 17.1326 22.5 17 22.5C16.6022 22.5 16.2206 22.342 15.9393 22.0607C15.658 21.7794 15.5 21.3978 15.5 21V16C15.5 15.8674 15.4473 15.7402 15.3536 15.6464C15.2598 15.5527 15.1326 15.5 15 15.5C14.8674 15.5 14.7402 15.4473 14.6465 15.3536C14.5527 15.2598 14.5 15.1326 14.5 15C14.5 14.8674 14.5527 14.7402 14.6465 14.6464C14.7402 14.5527 14.8674 14.5 15 14.5C15.3978 14.5 15.7794 14.658 16.0607 14.9393C16.342 15.2206 16.5 15.6022 16.5 16V21C16.5 21.1326 16.5527 21.2598 16.6465 21.3536C16.7402 21.4473 16.8674 21.5 17 21.5C17.1326 21.5 17.2598 21.5527 17.3536 21.6464C17.4473 21.7402 17.5 21.8674 17.5 22ZM15.5 11.5C15.6978 11.5 15.8911 11.4414 16.0556 11.3315C16.22 11.2216 16.3482 11.0654 16.4239 10.8827C16.4996 10.7 16.5194 10.4989 16.4808 10.3049C16.4422 10.1109 16.347 9.93275 16.2071 9.79289C16.0673 9.65304 15.8891 9.5578 15.6951 9.51921C15.5011 9.48063 15.3 9.50043 15.1173 9.57612C14.9346 9.65181 14.7784 9.77998 14.6685 9.94443C14.5587 10.1089 14.5 10.3022 14.5 10.5C14.5 10.7652 14.6054 11.0196 14.7929 11.2071C14.9804 11.3946 15.2348 11.5 15.5 11.5ZM28.5 16C28.5 18.4723 27.7669 20.889 26.3934 22.9446C25.0199 25.0002 23.0676 26.6024 20.7835 27.5485C18.4995 28.4946 15.9861 28.7421 13.5614 28.2598C11.1366 27.7775 8.90933 26.587 7.16117 24.8388C5.41301 23.0907 4.2225 20.8634 3.74019 18.4386C3.25787 16.0139 3.50542 13.5005 4.45151 11.2165C5.39761 8.93238 6.99976 6.98015 9.05538 5.60663C11.111 4.23311 13.5277 3.5 16 3.5C19.3141 3.50364 22.4914 4.82177 24.8348 7.16518C27.1782 9.5086 28.4964 12.6859 28.5 16ZM27.5 16C27.5 13.7255 26.8255 11.5021 25.5619 9.61094C24.2983 7.71978 22.5022 6.24579 20.4009 5.37539C18.2995 4.50498 15.9872 4.27724 13.7565 4.72097C11.5257 5.1647 9.47658 6.25997 7.86828 7.86827C6.25997 9.47658 5.1647 11.5257 4.72097 13.7565C4.27724 15.9872 4.50498 18.2995 5.37539 20.4009C6.2458 22.5022 7.71978 24.2983 9.61095 25.5619C11.5021 26.8255 13.7255 27.5 16 27.5C19.049 27.4967 21.9721 26.284 24.1281 24.1281C26.284 21.9721 27.4967 19.049 27.5 16Z" fill="#9BA0A6"/>
</svg>
