<svg width="32" height="32" viewBox="0 0 32 32" fill="none" xmlns="http://www.w3.org/2000/svg">
<path d="M16 3.5C13.5277 3.5 11.111 4.23311 9.05538 5.60663C6.99976 6.98015 5.39761 8.93238 4.45151 11.2165C3.50542 13.5005 3.25787 16.0139 3.74019 18.4386C4.2225 20.8634 5.41301 23.0907 7.16117 24.8388C8.90933 26.587 11.1366 27.7775 13.5614 28.2598C15.9861 28.7421 18.4995 28.4946 20.7835 27.5485C23.0676 26.6024 25.0199 25.0002 26.3934 22.9446C27.7669 20.889 28.5 18.4723 28.5 16C28.4964 12.6859 27.1782 9.5086 24.8348 7.16518C22.4914 4.82177 19.3141 3.50364 16 3.5ZM16 27.5C13.7255 27.5 11.5021 26.8255 9.61095 25.5619C7.71978 24.2983 6.2458 22.5022 5.37539 20.4009C4.50498 18.2995 4.27724 15.9872 4.72097 13.7565C5.1647 11.5257 6.25997 9.47658 7.86828 7.86827C9.47658 6.25997 11.5257 5.1647 13.7565 4.72097C15.9872 4.27724 18.2995 4.50498 20.4009 5.37539C22.5022 6.24579 24.2983 7.71978 25.5619 9.61094C26.8255 11.5021 27.5 13.7255 27.5 16C27.4967 19.049 26.284 21.9721 24.1281 24.1281C21.9721 26.284 19.049 27.4967 16 27.5ZM23.5 16C23.5 16.1326 23.4473 16.2598 23.3536 16.3536C23.2598 16.4473 23.1326 16.5 23 16.5H16C15.8674 16.5 15.7402 16.4473 15.6465 16.3536C15.5527 16.2598 15.5 16.1326 15.5 16V9C15.5 8.86739 15.5527 8.74021 15.6465 8.64645C15.7402 8.55268 15.8674 8.5 16 8.5C16.1326 8.5 16.2598 8.55268 16.3536 8.64645C16.4473 8.74021 16.5 8.86739 16.5 9V15.5H23C23.1326 15.5 23.2598 15.5527 23.3536 15.6464C23.4473 15.7402 23.5 15.8674 23.5 16Z" fill="#9BA0A6"/>
</svg>
