<svg width="32" height="32" viewBox="0 0 32 32" fill="none" xmlns="http://www.w3.org/2000/svg">
<path d="M11.2 12C11.2 11.7878 11.2843 11.5843 11.4343 11.4343C11.5843 11.2843 11.7878 11.2 12 11.2H20C20.2122 11.2 20.4157 11.2843 20.5657 11.4343C20.7157 11.5843 20.8 11.7878 20.8 12C20.8 12.2122 20.7157 12.4157 20.5657 12.5657C20.4157 12.7157 20.2122 12.8 20 12.8H12C11.7878 12.8 11.5843 12.7157 11.4343 12.5657C11.2843 12.4157 11.2 12.2122 11.2 12ZM12 16C11.7878 16 11.5843 16.0843 11.4343 16.2343C11.2843 16.3843 11.2 16.5878 11.2 16.8C11.2 17.0122 11.2843 17.2157 11.4343 17.3657C11.5843 17.5157 11.7878 17.6 12 17.6H20C20.2122 17.6 20.4157 17.5157 20.5657 17.3657C20.7157 17.2157 20.8 17.0122 20.8 16.8C20.8 16.5878 20.7157 16.3843 20.5657 16.2343C20.4157 16.0843 20.2122 16 20 16H12ZM11.2 21.6C11.2 21.3878 11.2843 21.1843 11.4343 21.0343C11.5843 20.8843 11.7878 20.8 12 20.8H15.2C15.4122 20.8 15.6157 20.8843 15.7657 21.0343C15.9157 21.1843 16 21.3878 16 21.6C16 21.8122 15.9157 22.0157 15.7657 22.1657C15.6157 22.3157 15.4122 22.4 15.2 22.4H12C11.7878 22.4 11.5843 22.3157 11.4343 22.1657C11.2843 22.0157 11.2 21.8122 11.2 21.6ZM9.59999 4C9.59999 3.78782 9.68428 3.58434 9.83431 3.43431C9.98434 3.28428 10.1878 3.2 10.4 3.2C10.6122 3.2 10.8157 3.28428 10.9657 3.43431C11.1157 3.58434 11.2 3.78782 11.2 4V4.8H15.2V4C15.2 3.78782 15.2843 3.58434 15.4343 3.43431C15.5843 3.28428 15.7878 3.2 16 3.2C16.2122 3.2 16.4157 3.28428 16.5657 3.43431C16.7157 3.58434 16.8 3.78782 16.8 4V4.8H20.8V4C20.8 3.78782 20.8843 3.58434 21.0343 3.43431C21.1843 3.28428 21.3878 3.2 21.6 3.2C21.8122 3.2 22.0157 3.28428 22.1657 3.43431C22.3157 3.58434 22.4 3.78782 22.4 4V4.8H23.2C23.8365 4.8 24.447 5.05285 24.8971 5.50294C25.3471 5.95303 25.6 6.56348 25.6 7.2V14.7712C25.0784 14.9952 24.5888 15.3184 24.1632 15.7456L24 15.9088V7.2C24 6.98782 23.9157 6.78434 23.7657 6.63431C23.6157 6.48428 23.4122 6.4 23.2 6.4H8.79999C8.58782 6.4 8.38434 6.48428 8.23431 6.63431C8.08428 6.78434 7.99999 6.98782 7.99999 7.2V26.4C7.99999 26.6122 8.08428 26.8157 8.23431 26.9657C8.38434 27.1157 8.58782 27.2 8.79999 27.2H14.752L14.4912 28.2448C14.4443 28.4325 14.4155 28.6176 14.4048 28.8H8.79999C8.16347 28.8 7.55302 28.5471 7.10294 28.0971C6.65285 27.647 6.39999 27.0365 6.39999 26.4V7.2C6.39999 6.56348 6.65285 5.95303 7.10294 5.50294C7.55302 5.05285 8.16347 4.8 8.79999 4.8H9.59999V4ZM25.296 16.8768L17.568 24.6048C17.1178 25.0551 16.7982 25.6192 16.6432 26.2368L16.0432 28.6336C15.984 28.872 15.9875 29.1216 16.0533 29.3582C16.1191 29.5949 16.245 29.8105 16.4188 29.984C16.5926 30.1576 16.8083 30.2833 17.0449 30.3489C17.2816 30.4145 17.5313 30.4178 17.7696 30.3584L20.1664 29.76C20.784 29.605 21.3481 29.2854 21.7984 28.8352L29.5264 21.1072C30.0802 20.5445 30.3892 19.7857 30.386 18.9962C30.3828 18.2067 30.0677 17.4505 29.5093 16.8923C28.9509 16.3342 28.1945 16.0193 27.405 16.0164C26.6155 16.0135 25.8569 16.3228 25.2944 16.8768" fill="#8A9455"/>
</svg>
