<svg width="32" height="33" viewBox="0 0 32 33" fill="none" xmlns="http://www.w3.org/2000/svg">
<path d="M2.66667 16.6667C2.66667 24.0307 8.63601 30 16 30C23.364 30 29.3333 24.0307 29.3333 16.6667C29.3333 9.30267 23.364 3.33334 16 3.33334V6.00001C18.554 6.0003 21.023 6.91694 22.9585 8.58332C24.8939 10.2497 26.1672 12.5552 26.5469 15.0808C26.9266 17.6063 26.3876 20.1843 25.0277 22.3462C23.6678 24.508 21.5775 26.1101 19.1365 26.8614C16.6955 27.6127 14.066 27.4632 11.7259 26.4401C9.38585 25.4171 7.49051 23.5883 6.3844 21.2863C5.2783 18.9843 5.03487 16.3619 5.69835 13.8956C6.36184 11.4293 7.8882 9.28298 10 7.84667V11.3333H12.6667V3.33334H4.66667V6.00001H8.00001C6.34329 7.24125 4.99869 8.85155 4.0729 10.7031C3.14712 12.5547 2.66564 14.5966 2.66667 16.6667Z" fill="white"/>
</svg>
