<svg width="32" height="32" viewBox="0 0 32 32" fill="none" xmlns="http://www.w3.org/2000/svg">
<path d="M24.7625 7.82375C24.0391 6.09655 22.8214 4.62167 21.2624 3.58439C19.7034 2.54711 17.8726 1.99371 16 1.99371C14.1274 1.99371 12.2966 2.54711 10.7376 3.58439C9.17859 4.62167 7.96089 6.09655 7.2375 7.82375C5.67526 8.53779 4.35107 9.68567 3.42255 11.1308C2.49402 12.5759 2.00025 14.2573 2 15.975C1.9875 20.75 6 24.875 10.7675 25C12.2339 25.0354 13.6868 24.7123 15 24.0587V29C15 29.2652 15.1054 29.5196 15.2929 29.7071C15.4804 29.8946 15.7348 30 16 30C16.2652 30 16.5196 29.8946 16.7071 29.7071C16.8946 29.5196 17 29.2652 17 29V24.0587C18.2432 24.6759 19.612 24.998 21 25H21.2275C26 24.875 30.0137 20.75 30 15.975C29.9998 14.2573 29.506 12.5759 28.5775 11.1308C27.6489 9.68567 26.3247 8.53779 24.7625 7.82375ZM21.1812 23C19.69 23.0388 18.2252 22.6009 17 21.75V16.625L22.4475 13.9025C22.565 13.8437 22.6698 13.7624 22.7559 13.6631C22.842 13.5638 22.9077 13.4486 22.9493 13.3239C22.9908 13.1993 23.0074 13.0676 22.9981 12.9366C22.9888 12.8055 22.9538 12.6775 22.895 12.56C22.8362 12.4425 22.7549 12.3377 22.6556 12.2516C22.5563 12.1655 22.4411 12.0998 22.3164 12.0582C22.1918 12.0167 22.0601 12.0001 21.9291 12.0094C21.798 12.0187 21.67 12.0537 21.5525 12.1125L17 14.3825V11C17 10.7348 16.8946 10.4804 16.7071 10.2929C16.5196 10.1054 16.2652 10 16 10C15.7348 10 15.4804 10.1054 15.2929 10.2929C15.1054 10.4804 15 10.7348 15 11V17.3825L10.4475 15.105C10.2101 14.9863 9.93534 14.9668 9.68357 15.0507C9.4318 15.1346 9.22368 15.3151 9.105 15.5525C8.98631 15.7899 8.96678 16.0647 9.05071 16.3164C9.13463 16.5682 9.31513 16.7763 9.5525 16.895L15 19.6175V21.7425C13.7751 22.5941 12.3101 23.032 10.8187 22.9925C7.1125 22.9037 3.99 19.69 4 15.98C3.99905 14.5847 4.41681 13.2213 5.19924 12.066C5.98166 10.9108 7.09274 10.0169 8.38875 9.5C8.51876 9.44779 8.63635 9.36885 8.7339 9.26829C8.83144 9.16772 8.90677 9.04779 8.955 8.91625C9.48247 7.47174 10.4412 6.22428 11.7014 5.34289C12.9616 4.46151 14.4622 3.98879 16 3.98879C17.5378 3.98879 19.0384 4.46151 20.2986 5.34289C21.5588 6.22428 22.5175 7.47174 23.045 8.91625C23.0932 9.04779 23.1686 9.16772 23.2661 9.26829C23.3636 9.36885 23.4812 9.44779 23.6112 9.5C24.9071 10.0172 26.018 10.9111 26.8003 12.0663C27.5827 13.2215 28.0006 14.5848 28 15.98C28.01 19.69 24.8875 22.9037 21.1812 23Z" fill="#9BA0A6"/>
</svg>
