<svg width="32" height="32" viewBox="0 0 32 32" fill="none" xmlns="http://www.w3.org/2000/svg">
<path d="M21.3333 29.3333V10H22.6667C23.5507 10 24.3986 9.64882 25.0237 9.0237C25.6488 8.39858 26 7.55073 26 6.66668V4.66668H18.6667C17.7826 4.66668 16.9348 4.31549 16.3096 3.69037C15.6845 3.06524 15.3333 2.2174 15.3333 1.33334V6.52534C15.3334 8.00425 14.9684 9.46031 14.2706 10.7642C13.5728 12.0682 12.5639 13.1797 11.3333 14C10.1028 14.8204 9.09386 15.9318 8.39607 17.2358C7.69828 18.5397 7.33323 19.9958 7.33333 21.4747V28.6667H6.66667C5.78261 28.6667 4.93476 28.3155 4.30964 27.6904C3.68452 27.0652 3.33333 26.2174 3.33333 25.3333V20M10.6667 20.6667H14V21.3333C14 23.3333 14 24.6667 15 26.6667C15 26.6667 16 28.6667 17.3333 28.6667" stroke="#9BA0A6" stroke-width="1.33333"/>
</svg>
