<svg width="32" height="32" viewBox="0 0 32 32" fill="none" xmlns="http://www.w3.org/2000/svg">
<path d="M21.5604 3.11492C21.4176 3.11543 21.2744 3.12071 21.1308 3.13077C17.6683 3.37348 13.9596 6.30298 13.3588 10.254L29.0156 10.9136V6.90306C28.5732 6.47694 28.1179 6.06908 27.651 5.69026C25.7594 4.15535 23.7028 3.10715 21.5605 3.11486L21.5604 3.11492ZM8.86602 4.23191C6.88704 4.23891 4.8297 5.04746 2.98438 6.74824V11.1943L12.3965 10.1654L12.3766 10.1624C12.5884 8.70294 13.1601 7.37573 13.9714 6.23905C12.4963 4.91944 10.7155 4.22545 8.86596 4.23202L8.86602 4.23191ZM14.896 11.3147C13.5567 11.3006 8.88751 11.9784 8.90216 12.7955C8.92732 14.1928 14.6133 15.6148 14.0825 15.695C8.70212 16.507 5.717 16.5155 3.93266 18.1438C1.80455 20.0855 15.6895 22.5691 14.0182 23.0485C10.8899 23.946 8.12183 25.0313 8.05719 27.8836C8.04789 28.2949 8.10094 28.6703 8.20512 29.0157H11.2099C10.3665 27.8872 9.89469 26.7919 10.4115 26.5049C10.9809 27.331 11.6415 28.2071 12.3897 29.0157H15.9054C14.8404 28.4736 13.0763 27.4074 13.1385 26.3128C13.226 24.7723 16.7681 23.701 16.9603 23.701C16.9603 23.701 14.2923 25.1439 14.2332 26.4281C14.1912 27.3403 15.4536 28.4507 16.185 29.0157H19.0274C18.1276 28.3417 17.5794 27.6529 17.9103 27.272C18.7602 27.8771 19.7213 28.499 20.7446 29.0157H26.5807C23.4777 28.1413 20.9652 27.229 20.2793 26.1103C19.7217 25.2008 24.2366 24.588 23.5829 21.7953C23.2662 20.4425 20.3979 19.548 12.4692 18.3705C11.0818 18.1644 19.8169 17.3065 19.5686 15.2473C19.4237 14.0453 13.92 13.7789 13.3025 13.2275C13.0429 12.9958 13.6231 11.6109 14.8959 11.3149L14.896 11.3147ZM6.9998 18.8468C8.82505 18.8389 11.6146 20.0731 13.7154 20.8564L13.6175 21.4946C12.0642 20.9146 7.93523 19.4458 6.64805 18.8654C6.76071 18.8534 6.87813 18.8473 6.9998 18.8468ZM21.7782 21.7892C21.7839 21.7888 21.7836 21.7934 21.7774 21.803C21.9907 22.4693 20.6023 24.212 18.3973 24.1459C19.1713 23.7549 21.6639 21.7941 21.7782 21.7891V21.7892Z" fill="#8A9455"/>
</svg>
