<svg width="32" height="32" viewBox="0 0 32 32" fill="none" xmlns="http://www.w3.org/2000/svg">
<path d="M14.7493 11.3333C13.4924 11.3333 12.2711 11.5013 11.0853 11.8373C9.89955 12.1733 8.78044 12.6684 7.72799 13.3227L9.15466 25.9493C9.18844 26.1538 9.27777 26.3244 9.42266 26.4613C9.56844 26.5982 9.75244 26.6667 9.97466 26.6667H22.052C22.2742 26.6667 22.4578 26.5982 22.6027 26.4613C22.7476 26.3244 22.8373 26.1538 22.872 25.9493L24.364 12.6667H23.3533C22.5436 12.6667 21.7942 12.6058 21.1053 12.484C20.4164 12.3622 19.4804 12.1316 18.2973 11.792C17.7347 11.6196 17.1542 11.5 16.556 11.4333C15.9578 11.3667 15.3556 11.3333 14.7493 11.3333ZM7.57466 11.9107C8.69111 11.276 9.85466 10.7991 11.0653 10.48C12.2769 10.16 13.516 10 14.7827 10C15.4316 10 16.0796 10.04 16.7267 10.12C17.3738 10.2 18.0111 10.3289 18.6387 10.5067C19.8182 10.8356 20.7151 11.0556 21.3293 11.1667C21.9444 11.2778 22.6111 11.3333 23.3293 11.3333H24.5107L25.1547 5.33333H6.82133L7.57466 11.9107ZM9.96666 28C9.39777 28 8.91022 27.8204 8.50399 27.4613C8.09777 27.1022 7.86977 26.6467 7.81999 26.0947L5.33333 4H26.6667L24.2053 26.0947C24.1556 26.6467 23.9276 27.1022 23.5213 27.4613C23.116 27.8204 22.6284 28 22.0587 28H9.96666ZM14.7493 26.6667H22.872H9.15466H14.7493Z" fill="#9BA0A6"/>
</svg>
