<svg width="32" height="32" viewBox="0 0 32 32" fill="none" xmlns="http://www.w3.org/2000/svg">
<path d="M16 20.8C17.273 20.8 18.4939 20.2943 19.3941 19.3941C20.2943 18.494 20.8 17.2731 20.8 16C20.8 14.727 20.2943 13.5061 19.3941 12.6059C18.4939 11.7057 17.273 11.2 16 11.2C14.727 11.2 13.5061 11.7057 12.6059 12.6059C11.7057 13.5061 11.2 14.727 11.2 16C11.2 17.2731 11.7057 18.494 12.6059 19.3941C13.5061 20.2943 14.727 20.8 16 20.8ZM16.8 4.00001C16.8 3.78784 16.7157 3.58436 16.5657 3.43433C16.4157 3.2843 16.2122 3.20001 16 3.20001C15.7878 3.20001 15.5843 3.2843 15.4343 3.43433C15.2843 3.58436 15.2 3.78784 15.2 4.00001V6.43201C12.9378 6.62088 10.8157 7.60531 9.21049 9.2105C7.60529 10.8157 6.62087 12.9378 6.432 15.2H4C3.78782 15.2 3.58434 15.2843 3.43431 15.4343C3.28428 15.5844 3.2 15.7878 3.2 16C3.2 16.2122 3.28428 16.4157 3.43431 16.5657C3.58434 16.7157 3.78782 16.8 4 16.8H6.432C6.62087 19.0622 7.60529 21.1843 9.21049 22.7895C10.8157 24.3947 12.9378 25.3791 15.2 25.568V28C15.2 28.2122 15.2843 28.4157 15.4343 28.5657C15.5843 28.7157 15.7878 28.8 16 28.8C16.2122 28.8 16.4157 28.7157 16.5657 28.5657C16.7157 28.4157 16.8 28.2122 16.8 28V25.568C19.0622 25.3791 21.1843 24.3947 22.7895 22.7895C24.3947 21.1843 25.3791 19.0622 25.568 16.8H28C28.2122 16.8 28.4157 16.7157 28.5657 16.5657C28.7157 16.4157 28.8 16.2122 28.8 16C28.8 15.7878 28.7157 15.5844 28.5657 15.4343C28.4157 15.2843 28.2122 15.2 28 15.2H25.568C25.3791 12.9378 24.3947 10.8157 22.7895 9.2105C21.1843 7.60531 19.0622 6.62088 16.8 6.43201V4.00001ZM16 24C13.8783 24 11.8434 23.1572 10.3431 21.6569C8.84285 20.1566 8 18.1217 8 16C8 13.8783 8.84285 11.8434 10.3431 10.3432C11.8434 8.84287 13.8783 8.00001 16 8.00001C18.1217 8.00001 20.1566 8.84287 21.6569 10.3432C23.1571 11.8434 24 13.8783 24 16C24 18.1217 23.1571 20.1566 21.6569 21.6569C20.1566 23.1572 18.1217 24 16 24Z" fill="#8A9455"/>
</svg>
