<svg width="32" height="33" viewBox="0 0 32 33" fill="none" xmlns="http://www.w3.org/2000/svg">
<path d="M21.94 10.6067C22.2217 10.3384 22.5966 10.1902 22.9856 10.1931C23.3746 10.1961 23.7472 10.35 24.0249 10.6224C24.3025 10.8949 24.4635 11.2646 24.4738 11.6534C24.484 12.0423 24.3429 12.4199 24.08 12.7067L16.1 22.6867C15.9628 22.8345 15.7972 22.9531 15.6131 23.0354C15.429 23.1177 15.2301 23.1621 15.0285 23.1658C14.8269 23.1696 14.6265 23.1326 14.4395 23.0571C14.2525 22.9817 14.0826 22.8693 13.94 22.7267L8.64799 17.4347C8.50062 17.2973 8.38242 17.1317 8.30043 16.9477C8.21845 16.7637 8.17437 16.5651 8.17081 16.3637C8.16726 16.1623 8.20431 15.9623 8.27975 15.7755C8.35519 15.5887 8.46748 15.419 8.60992 15.2766C8.75236 15.1342 8.92202 15.0219 9.1088 14.9464C9.29558 14.871 9.49563 14.8339 9.69704 14.8375C9.89845 14.841 10.0971 14.8851 10.2811 14.9671C10.4651 15.0491 10.6307 15.1673 10.768 15.3147L14.956 19.5007L21.902 10.6507L21.94 10.6067Z" fill="white"/>
</svg>
