<svg width="32" height="32" viewBox="0 0 32 32" fill="none" xmlns="http://www.w3.org/2000/svg">
<path d="M4 28V11.8C4 10.2356 4.42489 8.85733 5.27467 7.66533C6.12444 6.47333 7.29289 5.57289 8.78 4.964C9.86 4.54889 11.0436 4.28444 12.3307 4.17067C13.6178 4.05689 14.8409 4 16 4C17.1591 4 18.3822 4.05689 19.6693 4.17067C20.9564 4.28444 22.1404 4.54889 23.2213 4.964C24.7084 5.57289 25.8764 6.47333 26.7253 7.66533C27.5751 8.85822 28 10.2364 28 11.8V28H4ZM11.672 26.6667H20.312L18.312 24.4613H13.672L11.672 26.6667ZM10 17.64H22V12H10V17.64ZM20.1067 21.7947C20.4133 21.7947 20.6689 21.6911 20.8733 21.484C21.0778 21.2769 21.18 21.02 21.18 20.7133C21.18 20.4067 21.076 20.1516 20.868 19.948C20.66 19.7444 20.4031 19.6422 20.0973 19.6413C19.7916 19.6404 19.5364 19.744 19.332 19.952C19.1276 20.16 19.0253 20.4169 19.0253 20.7227C19.0253 21.0284 19.1289 21.2836 19.336 21.488C19.5431 21.6924 19.8 21.7947 20.1067 21.7947ZM11.9013 21.7947C12.208 21.7947 12.4636 21.6911 12.668 21.484C12.8724 21.2769 12.9747 21.02 12.9747 20.7133C12.9747 20.4067 12.8707 20.1516 12.6627 19.948C12.4547 19.7444 12.1982 19.6422 11.8933 19.6413C11.5884 19.6404 11.3329 19.744 11.1267 19.952C10.9204 20.16 10.8182 20.4169 10.82 20.7227C10.8218 21.0284 10.9253 21.2836 11.1307 21.488C11.3387 21.6924 11.5956 21.7947 11.9013 21.7947ZM5.33333 26.6667H10.5133V26L11.964 24.3947C10.9684 24.2791 10.1956 23.8791 9.64533 23.1947C9.096 22.5093 8.82133 21.6667 8.82133 20.6667V12C8.82133 10.7289 9.512 9.87244 10.8933 9.43067C12.2756 8.98978 13.9778 8.76933 16 8.76933C18.2222 8.76933 19.9742 8.98978 21.256 9.43067C22.5378 9.87156 23.1787 10.728 23.1787 12V20.6667C23.1787 21.6667 22.9036 22.5049 22.3533 23.1813C21.8031 23.8578 21.0307 24.2622 20.036 24.3947L21.488 26V26.6667H26.6667V11.8C26.6667 10.4667 26.3391 9.328 25.684 8.384C25.0289 7.44 24.0453 6.712 22.7333 6.2C21.7556 5.82222 20.6724 5.58356 19.484 5.484C18.2956 5.38444 17.1342 5.33422 16 5.33333C14.8658 5.33244 13.7044 5.38267 12.516 5.484C11.3276 5.58533 10.2444 5.824 9.26667 6.2C7.95556 6.71111 6.97244 7.43911 6.31733 8.384C5.66222 9.32889 5.33422 10.4676 5.33333 11.8V26.6667Z" fill="#9BA0A6"/>
</svg>
