<svg width="32" height="32" viewBox="0 0 32 32" fill="none" xmlns="http://www.w3.org/2000/svg">
<path d="M29.66 12.2338C29.5529 11.8949 29.3464 11.5961 29.0673 11.3761C28.7882 11.1561 28.4495 11.0251 28.095 11L20.5637 10.3913L17.6612 3.36625C17.5258 3.03697 17.2956 2.75537 16.9998 2.55719C16.704 2.35901 16.356 2.2532 16 2.2532C15.644 2.2532 15.296 2.35901 15.0002 2.55719C14.7044 2.75537 14.4742 3.03697 14.3387 3.36625L11.4362 10.3888L3.905 11C3.55021 11.0253 3.21123 11.1567 2.93213 11.3771C2.65303 11.5976 2.44671 11.897 2.34 12.2363C2.22876 12.5746 2.22021 12.9384 2.31542 13.2816C2.41063 13.6249 2.60534 13.9323 2.875 14.165L8.625 19.1163L6.875 26.5225C6.79288 26.8691 6.81544 27.2323 6.93983 27.566C7.06421 27.8998 7.28483 28.1892 7.57375 28.3975C7.8591 28.6089 8.20165 28.7292 8.55652 28.7426C8.9114 28.7559 9.26204 28.6618 9.5625 28.4725L16 24.515L22.4475 28.4788C22.748 28.6681 23.0986 28.7622 23.4535 28.7488C23.8083 28.7354 24.1509 28.6152 24.4362 28.4038C24.7252 28.1954 24.9458 27.9061 25.0702 27.5723C25.1946 27.2385 25.2171 26.8754 25.135 26.5288L23.385 19.1225L29.125 14.165C29.3951 13.9321 29.5901 13.6243 29.6854 13.2805C29.7806 12.9368 29.7718 12.5725 29.66 12.2338ZM28.1425 13.03L22.0562 18.28C21.9524 18.3696 21.8751 18.486 21.8328 18.6165C21.7905 18.7469 21.7848 18.8865 21.8162 19.02L23.6762 26.8688C23.6925 26.928 23.6898 26.9908 23.6685 27.0485C23.6472 27.1061 23.6084 27.1556 23.5575 27.19C23.5114 27.2257 23.4553 27.246 23.397 27.2483C23.3387 27.2505 23.2812 27.2345 23.2325 27.2025L16.3925 23C16.2744 22.9275 16.1386 22.8891 16 22.8891C15.8614 22.8891 15.7256 22.9275 15.6075 23L8.7675 27.2013C8.71877 27.2333 8.66126 27.2493 8.603 27.247C8.54473 27.2448 8.48862 27.2244 8.4425 27.1888C8.39047 27.1552 8.35037 27.1061 8.32792 27.0484C8.30547 26.9907 8.30182 26.9274 8.3175 26.8675L10.1775 19.0188C10.209 18.8853 10.2033 18.7457 10.1609 18.6152C10.1186 18.4847 10.0413 18.3684 9.9375 18.2788L3.85125 13.0288C3.8035 12.9899 3.76905 12.9371 3.7527 12.8777C3.73634 12.8183 3.73889 12.7554 3.76 12.6975C3.7763 12.6405 3.80999 12.59 3.85637 12.553C3.90276 12.516 3.95952 12.4944 4.01875 12.4913L12.0087 11.8463C12.1464 11.8351 12.2783 11.7861 12.3899 11.7047C12.5016 11.6233 12.5885 11.5127 12.6412 11.385L15.72 3.935C15.7415 3.87986 15.7791 3.83248 15.8279 3.79907C15.8768 3.76566 15.9346 3.74779 15.9937 3.74779C16.0529 3.74779 16.1107 3.76566 16.1596 3.79907C16.2084 3.83248 16.246 3.87986 16.2675 3.935L19.3462 11.385C19.399 11.5127 19.4859 11.6233 19.5975 11.7047C19.7092 11.7861 19.8411 11.8351 19.9787 11.8463L27.9687 12.4913C28.028 12.4944 28.0847 12.516 28.1311 12.553C28.1775 12.59 28.2112 12.6405 28.2275 12.6975C28.2496 12.7549 28.2533 12.8177 28.238 12.8773C28.2228 12.9369 28.1894 12.9903 28.1425 13.03Z" fill="#333333"/>
</svg>
