<svg width="32" height="32" viewBox="0 0 32 32" fill="none" xmlns="http://www.w3.org/2000/svg">
<path d="M0.666666 0.666656L12.776 12.776M12.776 12.776L31.3333 31.3333M12.776 12.776L12.9067 12.6667C14.4656 11.0017 15.3331 8.80621 15.3333 6.52532V1.33332C15.3333 2.21738 15.6845 3.06522 16.3096 3.69035C16.9348 4.31547 17.7826 4.66666 18.6667 4.66666H26V6.66666C26 7.55071 25.6488 8.39856 25.0237 9.02368C24.3986 9.6488 23.5507 9.99999 22.6667 9.99999H21.3333V21.3333M21.3333 29.3333V25.3333M10 15.0867C9.15526 15.922 8.48461 16.9166 8.02687 18.0129C7.56913 19.1091 7.3334 20.2853 7.33333 21.4733V28.6667H6.66667C5.78261 28.6667 4.93476 28.3155 4.30964 27.6903C3.68452 27.0652 3.33333 26.2174 3.33333 25.3333V20M10.6667 20.6667H14V21.3333C14 23.3333 14 24.6667 15 26.6667C15 26.6667 16 28.6667 17.3333 28.6667" stroke="#9BA0A6" stroke-width="1.33333"/>
</svg>
