<svg width="32" height="32" viewBox="0 0 32 32" fill="none" xmlns="http://www.w3.org/2000/svg">
<path d="M16.0267 28.3333C22.8367 28.3333 28.3333 22.81 28.3333 15.9733C28.3333 9.16332 22.8367 3.66666 16.0267 3.66666M16.0267 28.3333C9.19 28.3333 3.66667 22.81 3.66667 15.9733C3.66667 9.16332 9.19 3.66666 16.0267 3.66666M16.0267 28.3333V3.66666M26.7013 9.83332H5.30667M26.77 22.0167H5.238M3.73333 16H28.2667" stroke="#9BA0A6" stroke-width="0.666667" stroke-linecap="round" stroke-linejoin="round"/>
<path d="M16.0133 28.3333C19.4187 28.3333 22.1667 22.81 22.1667 15.9733C22.1667 9.16332 19.4187 3.66666 16.0133 3.66666C12.5947 3.66666 9.83333 9.16332 9.83333 15.9733C9.83333 22.81 12.5947 28.3333 16.0133 28.3333Z" stroke="#9BA0A6" stroke-width="0.666667" stroke-linecap="round" stroke-linejoin="round"/>
</svg>
