<svg width="32" height="32" viewBox="0 0 32 32" fill="none" xmlns="http://www.w3.org/2000/svg">
<path d="M15.9733 26.6667V25.3333H24.5133C24.7178 25.3333 24.9058 25.248 25.0773 25.0773C25.2489 24.9067 25.3342 24.7182 25.3333 24.512V7.488C25.3333 7.28267 25.248 7.09422 25.0773 6.92267C24.9067 6.75111 24.7182 6.66578 24.512 6.66667H15.9747V5.33334H24.5133C25.1267 5.33334 25.6387 5.53911 26.0493 5.95067C26.46 6.36222 26.6658 6.87467 26.6667 7.488V24.5133C26.6667 25.1267 26.4609 25.6391 26.0493 26.0507C25.6378 26.4622 25.1258 26.6676 24.5133 26.6667H15.9733ZM15.0267 20.7187L14.0893 19.7587L17.1827 16.6667H5.35867V15.3333H17.1827L14.0893 12.24L15.0253 11.2827L19.744 16L15.0267 20.7187Z" fill="#BDBDBD"/>
</svg>
