<svg width="32" height="32" viewBox="0 0 32 32" fill="none" xmlns="http://www.w3.org/2000/svg">
<path d="M12 6.66666C12 6.1109 12.1158 5.56124 12.3401 5.05272C12.5643 4.54421 12.892 4.088 13.3024 3.7132C13.7128 3.33839 14.1967 3.05321 14.7234 2.87584C15.2501 2.69847 15.808 2.63281 16.3615 2.68303C16.915 2.73326 17.4519 2.89827 17.9381 3.16755C18.4243 3.43682 18.849 3.80446 19.1852 4.24701C19.5214 4.68955 19.7616 5.1973 19.8907 5.73788C20.0197 6.27845 20.0347 6.83998 19.9347 7.38666C20.53 7.49572 21.0844 7.7648 21.5384 8.16505C21.9924 8.56529 22.3289 9.0816 22.5117 9.65856C22.6945 10.2355 22.7168 10.8514 22.5761 11.4401C22.4355 12.0287 22.1372 12.568 21.7133 13C22.1728 13.4688 22.4837 14.0627 22.6069 14.7075C22.7302 15.3522 22.6603 16.0189 22.4061 16.6241C22.152 17.2293 21.7248 17.746 21.1781 18.1093C20.6315 18.4727 19.9897 18.6666 19.3333 18.6667H17V24.92L21.6267 20.2933C21.7182 20.1951 21.8286 20.1163 21.9513 20.0616C22.0739 20.007 22.2064 19.9776 22.3406 19.9752C22.4749 19.9728 22.6083 19.9975 22.7328 20.0478C22.8573 20.0981 22.9704 20.173 23.0654 20.2679C23.1603 20.3629 23.2352 20.476 23.2855 20.6005C23.3358 20.7251 23.3605 20.8584 23.3581 20.9927C23.3558 21.127 23.3264 21.2594 23.2717 21.382C23.2171 21.5047 23.1383 21.6151 23.04 21.7067L17 27.7467V29.6667C17 29.9319 16.8946 30.1862 16.7071 30.3738C16.5196 30.5613 16.2652 30.6667 16 30.6667C15.7348 30.6667 15.4804 30.5613 15.2929 30.3738C15.1054 30.1862 15 29.9319 15 29.6667V27.7467L8.96 21.7067C8.86175 21.6151 8.78295 21.5047 8.72829 21.382C8.67364 21.2594 8.64425 21.127 8.64188 20.9927C8.63951 20.8584 8.66421 20.7251 8.7145 20.6005C8.7648 20.476 8.83966 20.3629 8.93462 20.2679C9.02957 20.173 9.14269 20.0981 9.2672 20.0478C9.39172 19.9975 9.52509 19.9728 9.65936 19.9752C9.79364 19.9776 9.92605 20.007 10.0487 20.0616C10.1714 20.1163 10.2818 20.1951 10.3733 20.2933L15 24.92V18.6667H12.6667C12.0103 18.6666 11.3685 18.4727 10.8219 18.1093C10.2752 17.746 9.84805 17.2293 9.59387 16.6241C9.33969 16.0189 9.26985 15.3522 9.3931 14.7075C9.51634 14.0627 9.82719 13.4688 10.2867 13C9.86278 12.568 9.56451 12.0287 9.42386 11.4401C9.28322 10.8514 9.3055 10.2355 9.48832 9.65856C9.67114 9.0816 10.0076 8.56529 10.4616 8.16505C10.9156 7.7648 11.47 7.49572 12.0653 7.38666C12.0219 7.14913 12 6.90814 12 6.66666ZM12.6667 12C12.9319 12 13.1862 12.1054 13.3738 12.2929C13.5613 12.4804 13.6667 12.7348 13.6667 13C13.6667 13.2652 13.5613 13.5196 13.3738 13.7071C13.1862 13.8946 12.9319 14 12.6667 14C12.313 14 11.9739 14.1405 11.7239 14.3905C11.4738 14.6406 11.3333 14.9797 11.3333 15.3333C11.3333 15.687 11.4738 16.0261 11.7239 16.2761C11.9739 16.5262 12.313 16.6667 12.6667 16.6667H19.3333C19.687 16.6667 20.0261 16.5262 20.2761 16.2761C20.5262 16.0261 20.6667 15.687 20.6667 15.3333C20.6667 14.9797 20.5262 14.6406 20.2761 14.3905C20.0261 14.1405 19.687 14 19.3333 14C19.0681 14 18.8138 13.8946 18.6262 13.7071C18.4387 13.5196 18.3333 13.2652 18.3333 13C18.3333 12.7348 18.4387 12.4804 18.6262 12.2929C18.8138 12.1054 19.0681 12 19.3333 12C19.687 12 20.0261 11.8595 20.2761 11.6095C20.5262 11.3594 20.6667 11.0203 20.6667 10.6667C20.6667 10.313 20.5262 9.9739 20.2761 9.72385C20.0261 9.47381 19.687 9.33333 19.3333 9.33333H18.4947C18.3136 9.33324 18.1359 9.28397 17.9806 9.19079C17.8254 9.09761 17.6983 8.96402 17.613 8.80427C17.5277 8.64452 17.4874 8.46461 17.4964 8.28375C17.5054 8.10288 17.5633 7.92785 17.664 7.77733C17.8648 7.47613 17.9802 7.12607 17.9977 6.76448C18.0152 6.40289 17.9342 6.04333 17.7634 5.72414C17.5926 5.40496 17.3384 5.13811 17.0278 4.95208C16.7172 4.76604 16.362 4.66778 16 4.66778C15.638 4.66778 15.2828 4.76604 14.9722 4.95208C14.6617 5.13811 14.4074 5.40496 14.2366 5.72414C14.0658 6.04333 13.9848 6.40289 14.0023 6.76448C14.0198 7.12607 14.1352 7.47613 14.336 7.77733C14.4366 7.92775 14.4945 8.10266 14.5036 8.28341C14.5126 8.46416 14.4724 8.64398 14.3873 8.80368C14.3022 8.96339 14.1753 9.097 14.0202 9.19028C13.8651 9.28356 13.6876 9.333 13.5067 9.33333H12.6667C12.313 9.33333 11.9739 9.47381 11.7239 9.72385C11.4738 9.9739 11.3333 10.313 11.3333 10.6667C11.3333 11.0203 11.4738 11.3594 11.7239 11.6095C11.9739 11.8595 12.313 12 12.6667 12Z" fill="#8A9455"/>
</svg>
