<svg width="32" height="32" viewBox="0 0 32 32" fill="none" xmlns="http://www.w3.org/2000/svg">
<path d="M16 4C23.7333 4 30.0013 8.88533 30.0013 14.9133C30.0013 20.94 23.7333 25.8253 16.0013 25.8253C15.2315 25.824 14.4625 25.775 13.6987 25.6787L7.82133 29.5227C7.15333 29.876 6.91733 29.8373 7.19199 28.972L8.38133 24.068C4.54133 22.1213 2.00133 18.748 2.00133 14.9133C2.00133 8.88667 8.26799 4 16.0013 4M23.8787 14.7467L25.8387 12.848C25.9518 12.7305 26.0149 12.5738 26.0147 12.4107C26.0145 12.2477 25.951 12.0911 25.8376 11.9739C25.7242 11.8567 25.5698 11.7881 25.4068 11.7825C25.2439 11.7769 25.0851 11.8348 24.964 11.944L22.3933 14.432V12.376C22.3933 12.2091 22.327 12.049 22.209 11.931C22.091 11.813 21.9309 11.7467 21.764 11.7467C21.5971 11.7467 21.437 11.813 21.319 11.931C21.201 12.049 21.1347 12.2091 21.1347 12.376V15.7853C21.1125 15.8828 21.1125 15.9839 21.1347 16.0813V18C21.1347 18.1669 21.201 18.327 21.319 18.445C21.437 18.563 21.5971 18.6293 21.764 18.6293C21.9309 18.6293 22.091 18.563 22.209 18.445C22.327 18.327 22.3933 18.1669 22.3933 18V16.1827L22.9627 15.632L24.8667 18.3427C24.9142 18.4103 24.9746 18.468 25.0444 18.5123C25.1142 18.5567 25.1921 18.5868 25.2736 18.601C25.355 18.6153 25.4385 18.6133 25.5192 18.5953C25.5999 18.5773 25.6763 18.5435 25.744 18.496C25.8117 18.4485 25.8693 18.3881 25.9136 18.3182C25.958 18.2484 25.9881 18.1706 26.0024 18.0891C26.0166 18.0076 26.0147 17.9241 25.9966 17.8434C25.9786 17.7627 25.9449 17.6863 25.8973 17.6187L23.8787 14.7467ZM19.9347 17.312H17.988V12.396C17.9805 12.2343 17.9111 12.0816 17.794 11.9698C17.6769 11.858 17.5212 11.7956 17.3593 11.7956C17.1974 11.7956 17.0418 11.858 16.9247 11.9698C16.8076 12.0816 16.7381 12.2343 16.7307 12.396V17.9413C16.7307 18.288 17.0107 18.5707 17.3587 18.5707H19.9347C20.1016 18.5707 20.2616 18.5044 20.3797 18.3863C20.4977 18.2683 20.564 18.1082 20.564 17.9413C20.564 17.7744 20.4977 17.6144 20.3797 17.4963C20.2616 17.3783 20.1016 17.312 19.9347 17.312ZM12.1253 15.8573L13.0533 13.58L13.904 15.856L12.1253 15.8573ZM15.4893 16.5067L15.492 16.4853C15.4915 16.3268 15.431 16.1744 15.3227 16.0587L13.928 12.3253C13.8695 12.1474 13.7582 11.9916 13.6088 11.8787C13.4594 11.7657 13.2791 11.7011 13.092 11.6933C12.9037 11.6932 12.7198 11.7501 12.5644 11.8565C12.409 11.9629 12.2894 12.1138 12.2213 12.2893L10.0053 17.7227C9.94221 17.8772 9.94306 18.0505 10.0077 18.2044C10.0723 18.3583 10.1955 18.4802 10.35 18.5433C10.5045 18.6065 10.6778 18.6056 10.8317 18.541C10.9856 18.4763 11.1075 18.3532 11.1707 18.1987L11.6133 17.1147H14.3733L14.7707 18.1813C14.7978 18.2611 14.8406 18.3345 14.8966 18.3974C14.9526 18.4603 15.0207 18.5113 15.0968 18.5474C15.1729 18.5835 15.2554 18.6039 15.3396 18.6075C15.4237 18.6111 15.5077 18.5978 15.5866 18.5684C15.6655 18.5389 15.7377 18.4939 15.7989 18.4361C15.8601 18.3782 15.909 18.3087 15.9428 18.2316C15.9767 18.1544 15.9947 18.0713 15.9958 17.9871C15.9969 17.9029 15.9811 17.8193 15.9493 17.7413L15.4893 16.5067ZM11.0587 12.4027C11.059 12.32 11.043 12.2382 11.0116 12.1617C10.9802 12.0853 10.934 12.0158 10.8756 11.9573C10.8172 11.8989 10.7479 11.8525 10.6715 11.8209C10.5951 11.7893 10.5133 11.7732 10.4307 11.7733H6.10399C5.93708 11.7733 5.77701 11.8396 5.65899 11.9577C5.54097 12.0757 5.47466 12.2358 5.47466 12.4027C5.47466 12.5696 5.54097 12.7297 5.65899 12.8477C5.77701 12.9657 5.93708 13.032 6.10399 13.032H7.65066V18.0133C7.65066 18.1802 7.71697 18.3403 7.83499 18.4583C7.95301 18.5764 8.11308 18.6427 8.27999 18.6427C8.4469 18.6427 8.60698 18.5764 8.725 18.4583C8.84302 18.3403 8.90933 18.1802 8.90933 18.0133V13.032H10.4293C10.5121 13.0324 10.5941 13.0163 10.6706 12.9848C10.7471 12.9533 10.8166 12.907 10.8751 12.8485C10.9336 12.79 10.98 12.7204 11.0115 12.6439C11.043 12.5674 11.059 12.4854 11.0587 12.4027Z" fill="#371C1D"/>
</svg>
