<svg width="36" height="38" viewBox="0 0 36 38" fill="none" xmlns="http://www.w3.org/2000/svg">
<g filter="url(#filter0_d_201_45)">
<path fill-rule="evenodd" clip-rule="evenodd" d="M8.66667 4.66669C7.60581 4.66669 6.58839 5.08811 5.83824 5.83826C5.0881 6.58841 4.66667 7.60582 4.66667 8.66669V22C4.66667 22.7073 4.94762 23.3855 5.44772 23.8856C5.94782 24.3857 6.62609 24.6667 7.33334 24.6667V8.66669C7.33334 8.31307 7.47381 7.97393 7.72386 7.72388C7.97391 7.47383 8.31305 7.33335 8.66667 7.33335H27.3333C27.3333 6.62611 27.0524 5.94783 26.5523 5.44774C26.0522 4.94764 25.3739 4.66669 24.6667 4.66669H8.66667ZM8.66667 11.3334C8.66667 10.6261 8.94762 9.94783 9.44772 9.44774C9.94782 8.94764 10.6261 8.66669 11.3333 8.66669H28.6667C29.3739 8.66669 30.0522 8.94764 30.5523 9.44774C31.0524 9.94783 31.3333 10.6261 31.3333 11.3334V26.444C31.3333 27.1513 31.0524 27.8295 30.5523 28.3296C30.0522 28.8297 29.3739 29.1107 28.6667 29.1107H11.3333C10.6261 29.1107 9.94782 28.8297 9.44772 28.3296C8.94762 27.8295 8.66667 27.1513 8.66667 26.444V11.3334ZM28.6667 11.3334H11.3333V21.7974L16.464 16.6667C16.6188 16.5119 16.8025 16.3891 17.0048 16.3053C17.207 16.2215 17.4238 16.1784 17.6427 16.1784C17.8616 16.1784 18.0783 16.2215 18.2806 16.3053C18.4828 16.3891 18.6666 16.5119 18.8213 16.6667L23.1427 20.9867L24.3213 19.8094C24.4761 19.6545 24.6599 19.5317 24.8621 19.448C25.0643 19.3642 25.2811 19.321 25.5 19.321C25.7189 19.321 25.9357 19.3642 26.1379 19.448C26.3402 19.5317 26.5239 19.6545 26.6787 19.8094L28.6667 21.7974V11.3334ZM26 15.3334C26 15.8638 25.7893 16.3725 25.4142 16.7476C25.0391 17.1226 24.5304 17.3334 24 17.3334C23.4696 17.3334 22.9609 17.1226 22.5858 16.7476C22.2107 16.3725 22 15.8638 22 15.3334C22 14.8029 22.2107 14.2942 22.5858 13.9191C22.9609 13.5441 23.4696 13.3334 24 13.3334C24.5304 13.3334 25.0391 13.5441 25.4142 13.9191C25.7893 14.2942 26 14.8029 26 15.3334Z" fill="white"/>
</g>
<defs>
<filter id="filter0_d_201_45" x="-2" y="0.666687" width="40" height="40" filterUnits="userSpaceOnUse" color-interpolation-filters="sRGB">
<feFlood flood-opacity="0" result="BackgroundImageFix"/>
<feColorMatrix in="SourceAlpha" type="matrix" values="0 0 0 0 0 0 0 0 0 0 0 0 0 0 0 0 0 0 127 0" result="hardAlpha"/>
<feOffset dy="4"/>
<feGaussianBlur stdDeviation="2"/>
<feComposite in2="hardAlpha" operator="out"/>
<feColorMatrix type="matrix" values="0 0 0 0 0 0 0 0 0 0 0 0 0 0 0 0 0 0 0.25 0"/>
<feBlend mode="normal" in2="BackgroundImageFix" result="effect1_dropShadow_201_45"/>
<feBlend mode="normal" in="SourceGraphic" in2="effect1_dropShadow_201_45" result="shape"/>
</filter>
</defs>
</svg>
