<svg width="32" height="32" viewBox="0 0 32 32" fill="none" xmlns="http://www.w3.org/2000/svg">
<path d="M14.5 8C14.5 8.13261 14.4473 8.25979 14.3536 8.35355C14.2598 8.44732 14.1326 8.5 14 8.5H12C11.8674 8.5 11.7402 8.44732 11.6464 8.35355C11.5527 8.25979 11.5 8.13261 11.5 8C11.5 7.86739 11.5527 7.74021 11.6464 7.64645C11.7402 7.55268 11.8674 7.5 12 7.5H14C14.1326 7.5 14.2598 7.55268 14.3536 7.64645C14.4473 7.74021 14.5 7.86739 14.5 8ZM21 24.3575L21.49 27.7875C21.5205 28.0007 21.5048 28.218 21.4438 28.4245C21.3828 28.6311 21.2781 28.8221 21.1368 28.9846C20.9954 29.1471 20.8207 29.2772 20.6245 29.3662C20.4284 29.4551 20.2154 29.5007 20 29.5H12C11.785 29.5 11.5726 29.4538 11.3771 29.3646C11.1815 29.2753 11.0074 29.1451 10.8666 28.9827C10.7258 28.8203 10.6215 28.6295 10.5608 28.4233C10.5002 28.2171 10.4845 28.0003 10.515 27.7875L11 24.3575C9.05317 23.4158 7.41094 21.9448 6.26136 20.113C5.11179 18.2812 4.50137 16.1626 4.5 14C4.5 13.8674 4.55268 13.7402 4.64645 13.6464C4.74021 13.5527 4.86739 13.5 5 13.5H7.5V5C7.5 4.60218 7.65804 4.22064 7.93934 3.93934C8.22064 3.65804 8.60218 3.5 9 3.5H23C23.3978 3.5 23.7794 3.65804 24.0607 3.93934C24.342 4.22064 24.5 4.60218 24.5 5V13.5H27C27.1326 13.5 27.2598 13.5527 27.3536 13.6464C27.4473 13.7402 27.5 13.8674 27.5 14C27.4986 16.1626 26.8882 18.2812 25.7386 20.113C24.5891 21.9448 22.9468 23.4158 21 24.3575ZM8.5 13.5H23.5V5C23.5 4.86739 23.4473 4.74021 23.3536 4.64645C23.2598 4.55268 23.1326 4.5 23 4.5H9C8.86739 4.5 8.74021 4.55268 8.64645 4.64645C8.55268 4.74021 8.5 4.86739 8.5 5V13.5ZM20.0425 24.7663C17.4363 25.7448 14.5637 25.7448 11.9575 24.7663L11.5 27.9287C11.4898 27.9998 11.4951 28.0721 11.5153 28.1409C11.5356 28.2097 11.5705 28.2734 11.6175 28.3275C11.6646 28.3827 11.7233 28.4268 11.7894 28.4566C11.8555 28.4865 11.9275 28.5013 12 28.5H20C20.0713 28.5002 20.1417 28.4848 20.2065 28.455C20.2713 28.4253 20.3288 28.3817 20.375 28.3275C20.422 28.2734 20.4569 28.2097 20.4772 28.1409C20.4974 28.0721 20.5027 27.9998 20.4925 27.9287L20.0425 24.7663ZM26.4888 14.5H5.51125C5.63623 17.1978 6.79588 19.7436 8.74921 21.6086C10.7025 23.4735 13.2994 24.5141 16 24.5141C18.7006 24.5141 21.2975 23.4735 23.2508 21.6086C25.2041 19.7436 26.3638 17.1978 26.4888 14.5Z" fill="#9BA0A6"/>
</svg>
