<svg width="32" height="32" viewBox="0 0 32 32" fill="none" xmlns="http://www.w3.org/2000/svg">
<path d="M17.3345 3C18.2948 2.99924 19.2234 3.34399 19.9505 3.97126C20.6776 4.59853 21.1548 5.46646 21.2949 6.41649C21.435 7.36652 21.2286 8.33524 20.7135 9.14569C20.1983 9.95614 19.4088 10.5542 18.4892 10.8307L18.2625 10.892L21.4985 14.592L23.9305 15.8067C24.238 15.9569 24.476 16.2195 24.5952 16.5403C24.7144 16.8611 24.7057 17.2155 24.5709 17.5301C24.4361 17.8446 24.1854 18.0953 23.8709 18.2302C23.5564 18.365 23.202 18.3738 22.8812 18.2547L22.7385 18.192L20.3065 16.976C20.0746 16.8601 19.8608 16.711 19.6719 16.5333L19.4919 16.3467L18.1345 14.796L17.2545 18.3133C17.175 18.6334 17.0366 18.9359 16.8465 19.2053L16.6999 19.3947L19.2705 21.7453C19.6014 22.0474 19.8509 22.428 19.9959 22.852L20.0585 23.0653L21.0425 27H21.3345C21.6744 27.0004 22.0012 27.1305 22.2484 27.3638C22.4955 27.5971 22.6442 27.9159 22.6641 28.2552C22.684 28.5944 22.5736 28.9285 22.3555 29.1891C22.1374 29.4497 21.828 29.6172 21.4905 29.6573L21.3345 29.6667H20.1052C19.8066 29.6667 19.5151 29.5755 19.2697 29.4054C19.0243 29.2353 18.8366 28.9943 18.7319 28.7147L18.6825 28.5547L17.4719 23.7133L13.4585 20.044C12.9545 19.7874 12.5451 19.3772 12.2894 18.8727C12.0337 18.3682 11.9449 17.7956 12.0359 17.2373L12.0812 17.02L12.7652 14.284L12.3345 14.5907L10.4772 17.6867C10.3023 17.9787 10.0223 18.1927 9.6947 18.285C9.36706 18.3773 9.01655 18.3407 8.71498 18.1828C8.41342 18.025 8.18365 17.7578 8.07275 17.436C7.96185 17.1142 7.97823 16.7621 8.11853 16.452L8.19053 16.3133L10.0479 13.2187C10.1982 12.9679 10.3887 12.7436 10.6119 12.5547L10.7852 12.4213L14.4679 9.788C13.9199 9.22427 13.5502 8.51158 13.405 7.73896C13.2598 6.96633 13.3454 6.16805 13.6513 5.44383C13.9571 4.71961 14.4696 4.10157 15.1247 3.66693C15.7797 3.23229 16.5484 3.00032 17.3345 3ZM13.7559 21.068C13.9221 21.1233 14.0757 21.2108 14.2081 21.3255C14.3404 21.4402 14.4489 21.5798 14.5273 21.7365C14.6057 21.8931 14.6524 22.0637 14.6649 22.2384C14.6773 22.4131 14.6552 22.5885 14.5999 22.7547L14.0319 24.456C13.9011 24.8488 13.6806 25.2058 13.3879 25.4987L11.1785 27.708C11.3279 27.99 11.3712 28.3163 11.3005 28.6276C11.2298 28.9388 11.0498 29.2144 10.7932 29.4042C10.5366 29.5939 10.2204 29.6854 9.90208 29.6619C9.58377 29.6384 9.28446 29.5014 9.05853 29.276L8.4012 28.6187C8.14879 28.3661 8.007 28.0237 8.007 27.6667C8.007 27.3096 8.14879 26.9672 8.4012 26.7147L11.5025 23.6133L12.0692 21.912C12.1245 21.7458 12.212 21.5921 12.3267 21.4598C12.4414 21.3274 12.581 21.2189 12.7377 21.1406C12.8943 21.0622 13.0648 21.0154 13.2395 21.003C13.4143 20.9905 13.5897 21.0126 13.7559 21.068Z" fill="#9BA0A6"/>
</svg>
