<svg width="32" height="32" viewBox="0 0 32 32" fill="none" xmlns="http://www.w3.org/2000/svg">
<path d="M18.5175 5.87499C18.5507 5.74702 18.6333 5.63743 18.7472 5.5702C18.861 5.50296 18.9969 5.48356 19.125 5.51624C20.8952 5.97729 22.5103 6.90233 23.8036 8.19591C25.097 9.48948 26.0217 11.1047 26.4825 12.875C26.5165 13.003 26.4983 13.1392 26.432 13.2538C26.3657 13.3683 26.2566 13.4519 26.1287 13.4862C26.0881 13.4978 26.046 13.5036 26.0037 13.5037C25.8932 13.5034 25.7858 13.4664 25.6985 13.3985C25.6112 13.3307 25.5489 13.2358 25.5212 13.1287C25.1041 11.5302 24.2685 10.0717 23.1003 8.90349C21.9321 7.73528 20.4736 6.8996 18.875 6.48249C18.7473 6.44897 18.638 6.36627 18.571 6.25245C18.504 6.13863 18.4848 6.00294 18.5175 5.87499ZM17.875 10.4825C19.75 10.9862 21.0137 12.25 21.5175 14.125C21.5451 14.232 21.6075 14.3269 21.6948 14.3948C21.7821 14.4626 21.8894 14.4996 22 14.5C22.0423 14.4999 22.0843 14.494 22.125 14.4825C22.2529 14.4482 22.3619 14.3646 22.4282 14.25C22.4946 14.1354 22.5127 13.9992 22.4787 13.8712C21.8787 11.6212 20.3725 10.1212 18.125 9.51624C18.0001 9.49209 17.8707 9.51646 17.7631 9.5844C17.6555 9.65234 17.5779 9.75873 17.546 9.88191C17.5141 10.0051 17.5304 10.1358 17.5916 10.2474C17.6527 10.3589 17.754 10.443 17.875 10.4825ZM27.4925 22.8225C27.285 24.3962 26.5115 25.8404 25.3167 26.8853C24.1218 27.9302 22.5873 28.5042 21 28.5C11.35 28.5 3.5 20.65 3.5 11C3.49671 9.41334 4.07111 7.87975 5.11591 6.68566C6.16071 5.49157 7.60446 4.71864 9.1775 4.51124C9.49976 4.47206 9.82604 4.53849 10.1073 4.70055C10.3886 4.86261 10.6097 5.11155 10.7375 5.40999L13.375 11.3025C13.4736 11.531 13.5138 11.7804 13.492 12.0283C13.4701 12.2762 13.387 12.5147 13.25 12.7225C13.2387 12.7387 13.2275 12.755 13.215 12.77L10.565 15.9212C10.5234 15.9903 10.4996 16.0685 10.4957 16.149C10.4917 16.2295 10.5078 16.3097 10.5425 16.3825C11.5225 18.3887 13.6237 20.4737 15.6537 21.4537C15.7271 21.4877 15.8076 21.5031 15.8883 21.4986C15.969 21.494 16.0473 21.4696 16.1162 21.4275L19.225 18.7875L19.2725 18.7512C19.4805 18.6138 19.7195 18.5304 19.9679 18.5086C20.2163 18.4868 20.4662 18.5272 20.695 18.6262L26.5975 21.2712C26.893 21.3998 27.1392 21.6201 27.2997 21.8995C27.4602 22.1788 27.5265 22.5025 27.4887 22.8225H27.4925ZM26.1987 22.1825L20.2937 19.5375C20.222 19.5074 20.1441 19.4947 20.0666 19.5006C19.989 19.5065 19.9139 19.5307 19.8475 19.5712L16.75 22.2112L16.7037 22.2462C16.4884 22.39 16.2395 22.4756 15.9812 22.4947C15.7229 22.5137 15.4641 22.4656 15.23 22.355C12.98 21.2687 10.7412 19.045 9.655 16.8212C9.54328 16.5889 9.49333 16.3317 9.50997 16.0744C9.52661 15.8171 9.60928 15.5685 9.75 15.3525C9.76125 15.335 9.77375 15.32 9.78625 15.3037L12.435 12.1537C12.4747 12.0862 12.498 12.0103 12.503 11.9322C12.508 11.854 12.4945 11.7758 12.4637 11.7037L9.82125 5.81124C9.78401 5.71989 9.72059 5.6416 9.63896 5.58622C9.55733 5.53083 9.46114 5.50083 9.3625 5.49999C9.34252 5.49879 9.32248 5.49879 9.3025 5.49999C7.97032 5.67651 6.74803 6.33218 5.86416 7.34442C4.98029 8.35666 4.49534 9.65617 4.5 11C4.5 20.0975 11.9025 27.5 21 27.5C22.3438 27.5046 23.6433 27.0197 24.6556 26.1358C25.6678 25.252 26.3235 24.0297 26.5 22.6975C26.5115 22.5902 26.488 22.4821 26.4331 22.3893C26.3781 22.2965 26.2946 22.2239 26.195 22.1825H26.1987Z" fill="#9BA0A6"/>
</svg>
