<svg width="32" height="32" viewBox="0 0 32 32" fill="none" xmlns="http://www.w3.org/2000/svg">
<path d="M24.0027 28.6667C23.0782 28.6667 22.2911 28.3422 21.6413 27.6933C20.9916 27.0462 20.6667 26.2596 20.6667 25.3333C20.6667 25.1556 20.6818 24.972 20.712 24.7827C20.7431 24.5924 20.7893 24.4133 20.8507 24.2453L10.528 18.164C10.2018 18.532 9.82223 18.8187 9.38934 19.024C8.95645 19.2293 8.49334 19.3324 8.00001 19.3333C7.07378 19.3333 6.28712 19.0098 5.64001 18.3627C4.99112 17.7147 4.66667 16.928 4.66667 16.0027C4.66667 15.0773 4.99112 14.2902 5.64001 13.6413C6.28889 12.9924 7.07556 12.6676 8.00001 12.6667C8.49423 12.6667 8.95734 12.7698 9.38934 12.976C9.82134 13.1822 10.2009 13.4689 10.528 13.836L20.852 7.75333C20.7898 7.58622 20.7436 7.40755 20.7133 7.21733C20.6822 7.028 20.6667 6.84444 20.6667 6.66666C20.6667 5.74044 20.9907 4.95377 21.6387 4.30666C22.2858 3.65777 23.072 3.33333 23.9973 3.33333C24.9227 3.33333 25.7098 3.65733 26.3587 4.30533C27.0076 4.95333 27.3325 5.73955 27.3333 6.664C27.3342 7.58844 27.0098 8.37555 26.36 9.02533C25.7138 9.67511 24.9271 10 24 10C23.5058 10 23.0427 9.89688 22.6107 9.69066C22.1787 9.48444 21.7991 9.19777 21.472 8.83066L11.1493 14.9133C11.2107 15.0804 11.2564 15.2582 11.2867 15.4467C11.3178 15.636 11.3333 15.8187 11.3333 15.9947C11.3333 16.1707 11.3178 16.3551 11.2867 16.548C11.2556 16.7409 11.2093 16.9209 11.148 17.088L21.472 23.1693C21.7982 22.8022 22.1778 22.5156 22.6107 22.3093C23.0436 22.1031 23.5067 22 24 22C24.9262 22 25.7129 22.324 26.36 22.972C27.0089 23.6191 27.3333 24.4053 27.3333 25.3307C27.3333 26.256 27.0098 27.0431 26.3627 27.692C25.7156 28.3409 24.9289 28.6658 24.0027 28.6667ZM24 8.66666C24.5485 8.66666 25.0191 8.47066 25.412 8.07866C25.804 7.68577 26 7.21511 26 6.66666C26 6.11822 25.804 5.64755 25.412 5.25466C25.0191 4.86266 24.5485 4.66666 24 4.66666C23.4516 4.66666 22.9809 4.86266 22.588 5.25466C22.196 5.64755 22 6.11822 22 6.66666C22 7.21511 22.196 7.68577 22.588 8.07866C22.9809 8.47066 23.4516 8.66666 24 8.66666ZM8.00001 18C8.54845 18 9.01912 17.804 9.41201 17.412C9.80401 17.0191 10 16.5484 10 16C10 15.4516 9.80401 14.9809 9.41201 14.588C9.02001 14.1951 8.54934 13.9991 8.00001 14C7.45067 14.0009 6.98001 14.1969 6.58801 14.588C6.19601 14.9809 6.00001 15.4516 6.00001 16C6.00001 16.5484 6.19601 17.0191 6.58801 17.412C6.98001 17.8049 7.45067 18.0009 8.00001 18ZM24 27.3333C24.5485 27.3333 25.0191 27.1373 25.412 26.7453C25.804 26.3524 26 25.8818 26 25.3333C26 24.7849 25.804 24.3142 25.412 23.9213C25.0191 23.5293 24.5485 23.3333 24 23.3333C23.4516 23.3333 22.9809 23.5293 22.588 23.9213C22.196 24.3142 22 24.7849 22 25.3333C22 25.8818 22.196 26.3524 22.588 26.7453C22.9809 27.1373 23.4516 27.3333 24 27.3333Z" fill="#333333"/>
</svg>
