<svg width="32" height="33" viewBox="0 0 32 33" fill="none" xmlns="http://www.w3.org/2000/svg">
<path d="M23.3333 8.00003H8.66668C7.9303 8.00003 7.33334 8.59698 7.33334 9.33336V24C7.33334 24.7364 7.9303 25.3334 8.66668 25.3334H23.3333C24.0697 25.3334 24.6667 24.7364 24.6667 24V9.33336C24.6667 8.59698 24.0697 8.00003 23.3333 8.00003Z" stroke="white" stroke-width="1.33333"/>
<path d="M12.6667 14.6667C13.4031 14.6667 14 14.0697 14 13.3334C14 12.597 13.4031 12 12.6667 12C11.9303 12 11.3333 12.597 11.3333 13.3334C11.3333 14.0697 11.9303 14.6667 12.6667 14.6667Z" stroke="white" stroke-width="1.33333"/>
<path d="M10.6667 22L12.6667 18.6667L14.6667 22L18 16.6667L21.3334 22" stroke="white" stroke-width="1.33333" stroke-linecap="round" stroke-linejoin="round"/>
</svg>
