<svg width="32" height="32" viewBox="0 0 32 32" fill="none" xmlns="http://www.w3.org/2000/svg">
<path d="M21.1632 4.03528C21.0306 4.03575 20.8976 4.04066 20.7643 4.05C17.5491 4.27537 14.1054 6.99562 13.5474 10.6644L28.0859 11.2769V7.55284C27.6751 7.15716 27.2524 6.77843 26.8188 6.42667C25.0623 5.00139 23.1526 4.02807 21.1633 4.03523L21.1632 4.03528ZM9.37559 5.07248C7.53796 5.07898 5.62757 5.82978 3.91406 7.40908V11.5376L12.6539 10.5821L12.6354 10.5794C12.8321 9.22416 13.363 7.99175 14.1163 6.93626C12.7466 5.71091 11.093 5.06649 9.37554 5.07259L9.37559 5.07248ZM14.9749 11.6494C13.7312 11.6363 9.39554 12.2656 9.40915 13.0244C9.43251 14.3219 14.7124 15.6423 14.2195 15.7167C9.22339 16.4707 6.4515 16.4787 4.79461 17.9906C2.81851 19.7937 15.7117 22.0998 14.1598 22.545C11.2549 23.3785 8.68455 24.3862 8.62453 27.0348C8.6159 27.4167 8.66516 27.7653 8.76189 28.086H11.5521C10.7689 27.0381 10.3308 26.021 10.8107 25.7545C11.3394 26.5217 11.9528 27.3351 12.6476 28.086H15.9121C14.9232 27.5826 13.2851 26.5926 13.3429 25.5762C13.4242 24.1457 16.7133 23.151 16.8917 23.151C16.8917 23.151 14.4143 24.4908 14.3594 25.6832C14.3204 26.5303 15.4926 27.5614 16.1717 28.086H18.8111C17.9756 27.4601 17.4666 26.8205 17.7739 26.4668C18.563 27.0288 19.4555 27.6063 20.4057 28.086H25.8249C22.9436 27.2741 20.6105 26.427 19.9736 25.3881C19.4559 24.5436 23.6483 23.9746 23.0412 21.3814C22.7472 20.1252 20.0837 19.2946 12.7214 18.2012C11.4331 18.0098 19.5442 17.2132 19.3137 15.301C19.1791 14.1849 14.0686 13.9376 13.4952 13.4255C13.2542 13.2104 13.7929 11.9244 14.9748 11.6495L14.9749 11.6494ZM7.64268 18.6435C9.33755 18.6361 11.9279 19.7822 13.8786 20.5095L13.7877 21.1021C12.3453 20.5636 8.51129 19.1997 7.31605 18.6607C7.42066 18.6496 7.52969 18.6439 7.64268 18.6435ZM21.3655 21.3757C21.3708 21.3753 21.3705 21.3796 21.3647 21.3885C21.5628 22.0072 20.2736 23.6254 18.2261 23.5641C18.9448 23.201 21.2594 21.3803 21.3655 21.3756V21.3757Z" fill="#9BA0A6"/>
</svg>
