<svg width="32" height="32" viewBox="0 0 32 32" fill="none" xmlns="http://www.w3.org/2000/svg">
<path d="M7.488 26.6667C6.87377 26.6667 6.36133 26.4613 5.95066 26.0507C5.53999 25.64 5.33422 25.1271 5.33333 24.512V7.488C5.33333 6.87378 5.53911 6.36134 5.95066 5.95067C6.36222 5.54 6.87466 5.33422 7.488 5.33334H16.0253V6.66667H7.488C7.28266 6.66667 7.09422 6.752 6.92266 6.92267C6.75111 7.09334 6.66577 7.28178 6.66666 7.488V24.5133C6.66666 24.7178 6.75199 24.9058 6.92266 25.0773C7.09333 25.2489 7.28133 25.3342 7.48666 25.3333H16.0253V26.6667H7.488ZM21.9493 20.7187L21.0133 19.7587L24.1053 16.6667H12.256V15.3333H24.1053L21.012 12.24L21.948 11.2827L26.6667 16L21.9493 20.7187Z" fill="#BDBDBD"/>
</svg>
