<svg width="32" height="32" viewBox="0 0 32 32" fill="none" xmlns="http://www.w3.org/2000/svg">
<path d="M4.33334 27.6293C5.44167 27.6293 6.53717 27.7308 7.45767 27.0133C8.36067 26.3087 9.79684 26.332 10.6648 27.0647C11.6098 27.8638 13.3948 27.8405 14.3632 27.088C15.3012 26.3553 16.7245 26.2713 17.6648 27.0647C18.6962 27.9362 20.4333 27.8113 21.4577 27.0133C22.3607 26.3087 23.7968 26.332 24.6648 27.0647C25.5002 27.7705 26.64 27.6293 27.6667 27.6293M4.33334 22.9627C5.44167 22.9627 6.53717 23.0642 7.45767 22.3467C8.36067 21.642 9.79684 21.6653 10.6648 22.398C11.6098 23.1972 13.3948 23.1738 14.3632 22.4213C15.3012 21.6887 16.7245 21.6047 17.6648 22.398C18.6962 23.2695 20.4333 23.1447 21.4577 22.3467C22.3607 21.642 23.7968 21.6653 24.6648 22.398C25.5002 23.1038 26.64 22.9627 27.6667 22.9627M4.33334 18.3333H27.6667M9 18.3333V5.5M9 5.5C8.70834 6.27817 7.6 8.41667 5.5 8.41667M9 5.5C9.29167 6.27817 10.4 8.41667 12.5 8.41667M5.5 11.9167C7.6 11.9167 8.70834 9.77817 9 9C9.29167 9.77817 10.4 11.9167 12.5 11.9167" stroke="#9BA0A6" stroke-width="2" stroke-linecap="round" stroke-linejoin="round"/>
<path d="M22.4167 10.1667C24.0275 10.1667 25.3333 8.86083 25.3333 7.25C25.3333 5.63917 24.0275 4.33334 22.4167 4.33334C20.8058 4.33334 19.5 5.63917 19.5 7.25C19.5 8.86083 20.8058 10.1667 22.4167 10.1667Z" stroke="#9BA0A6" stroke-width="2" stroke-linecap="round" stroke-linejoin="round"/>
</svg>
