<svg width="32" height="32" viewBox="0 0 32 32" fill="none" xmlns="http://www.w3.org/2000/svg">
<path d="M12 25.3333V16.6667M12 16.6667V7.33332H18C18.6128 7.33332 19.2197 7.45403 19.7859 7.68855C20.352 7.92307 20.8665 8.26682 21.2998 8.70016C21.7332 9.1335 22.0769 9.64795 22.3114 10.2141C22.546 10.7803 22.6667 11.3872 22.6667 12C22.6667 12.6128 22.546 13.2197 22.3114 13.7858C22.0769 14.352 21.7332 14.8665 21.2998 15.2998C20.8665 15.7332 20.352 16.0769 19.7859 16.3114C19.2197 16.546 18.6128 16.6667 18 16.6667H12ZM16 31.3333C7.532 31.3333 0.666666 24.468 0.666666 16C0.666666 7.53199 7.532 0.666656 16 0.666656C24.468 0.666656 31.3333 7.53199 31.3333 16C31.3333 24.468 24.468 31.3333 16 31.3333Z" stroke="#9BA0A6" stroke-width="1.33333"/>
</svg>
