<svg width="125" height="25" viewBox="0 0 125 25" fill="none" xmlns="http://www.w3.org/2000/svg">
<path d="M30.96 21.0202V9.80417C30.96 9.59087 31.056 9.42017 31.248 9.29217C31.44 9.16417 31.6587 9.09484 31.904 9.08417C32.1493 9.0735 32.3947 9.13217 32.64 9.26017C32.8853 9.37747 33.056 9.55887 33.152 9.80417L36.72 18.8282L40.24 9.80417C40.2827 9.56947 40.4213 9.38817 40.656 9.26017C40.8907 9.1215 41.136 9.05217 41.392 9.05217C41.648 9.05217 41.8773 9.13217 42.08 9.29217C42.2933 9.44147 42.4 9.65487 42.4 9.93217V21.0202C42.4 21.3189 42.2773 21.5269 42.032 21.6442C41.7973 21.7722 41.5573 21.7722 41.312 21.6442C41.0773 21.5269 40.96 21.3189 40.96 21.0202V11.6922L37.392 20.8602C37.2747 21.1802 37.1253 21.3989 36.944 21.5162C36.7733 21.6335 36.6027 21.6335 36.432 21.5162C36.272 21.3989 36.144 21.1802 36.048 20.8602C36.048 20.8922 35.4347 19.3455 34.208 16.2202L32.368 11.5162V21.0202C32.368 21.3295 32.256 21.5482 32.032 21.6762C31.808 21.8042 31.5787 21.8042 31.344 21.6762C31.1093 21.5482 30.9813 21.3295 30.96 21.0202ZM43.6954 13.2762C43.5567 12.9775 43.5674 12.7375 43.7274 12.5562C43.898 12.3642 44.122 12.3109 44.3994 12.3962C44.6874 12.4709 44.9114 12.6735 45.0714 13.0042L47.6954 18.7802L50.1594 13.0042C50.234 12.6629 50.4207 12.4549 50.7194 12.3802C51.018 12.3055 51.274 12.3589 51.4874 12.5402C51.7007 12.7215 51.7434 12.9562 51.6154 13.2442L47.8234 22.0922C47.45 22.9775 46.7994 23.4309 45.8714 23.4522L44.8154 23.4042C44.4634 23.3935 44.2287 23.2709 44.1114 23.0362C44.0047 22.8015 44.026 22.5775 44.1754 22.3642C44.3354 22.1615 44.5487 22.0815 44.8154 22.1242L45.9834 22.1402C46.0794 22.1402 46.1647 22.0975 46.2394 22.0122C46.3247 21.9375 46.3834 21.8575 46.4154 21.7722C46.458 21.6869 46.5327 21.5269 46.6394 21.2922L46.9754 20.5722L43.6954 13.2762ZM60.1939 9.90017C60.1192 9.61217 60.1885 9.38287 60.4019 9.21217C60.6259 9.0415 60.8712 9.0095 61.1379 9.11617C61.4152 9.21217 61.5805 9.44147 61.6339 9.80417L63.8099 18.7802L66.2739 9.80417C66.3699 9.50547 66.5405 9.29747 66.7859 9.18017C67.0419 9.05217 67.2925 9.04684 67.5379 9.16417C67.7939 9.27087 67.9699 9.48417 68.0659 9.80417L70.4819 18.8282L72.6579 9.80417C72.7325 9.53747 72.8605 9.34547 73.0419 9.22817C73.2232 9.10017 73.3939 9.04684 73.5539 9.06817C73.7245 9.0895 73.8632 9.18017 73.9699 9.34017C74.0765 9.48947 74.0979 9.68147 74.0339 9.91617L71.2339 21.0682C71.1059 21.5482 70.8552 21.7882 70.4819 21.7882C70.1085 21.7882 69.8472 21.5535 69.6979 21.0842L67.1379 11.5162L64.5299 21.0842C64.4339 21.3935 64.2792 21.6069 64.0659 21.7242C63.8525 21.8415 63.6445 21.8362 63.4419 21.7082C63.2392 21.5909 63.1005 21.3829 63.0259 21.0842L60.1939 9.90017ZM76.4663 15.1482C76.4556 15.4575 76.3329 15.6762 76.0983 15.8042C75.8636 15.9322 75.6289 15.9322 75.3943 15.8042C75.1596 15.6762 75.0423 15.4575 75.0423 15.1482C75.0423 15.0842 75.0476 14.9935 75.0583 14.8762C75.0689 14.7589 75.1276 14.5562 75.2343 14.2682C75.3516 13.9695 75.5116 13.7082 75.7143 13.4842C75.9276 13.2602 76.2689 13.0575 76.7383 12.8762C77.2076 12.6949 77.7623 12.6042 78.4023 12.6042C79.3836 12.6042 80.2263 12.8709 80.9303 13.4042C81.6449 13.9269 82.0023 14.4655 82.0023 15.0202V19.5802C82.0023 19.9429 82.1836 20.1402 82.5463 20.1722C82.8343 20.1935 83.0263 20.3162 83.1223 20.5402C83.2289 20.7749 83.2183 20.9935 83.0903 21.1962C82.9729 21.4095 82.7916 21.5162 82.5463 21.5162C81.6289 21.4735 81.0209 21.2335 80.7223 20.7962C80.2209 21.2122 79.4903 21.4949 78.5303 21.6442C78.1463 21.7295 77.7249 21.7455 77.2663 21.6922C76.8183 21.6389 76.3969 21.5429 76.0023 21.4042C75.6183 21.2655 75.2876 21.0255 75.0103 20.6842C74.7329 20.3429 74.5836 19.9269 74.5623 19.4362C74.5196 18.7535 74.6263 18.2042 74.8823 17.7882C75.1383 17.3615 75.5009 17.0629 75.9703 16.8922C76.4503 16.7215 77.0049 16.5775 77.6343 16.4602C78.2636 16.3429 78.9303 16.2415 79.6343 16.1562C79.8689 16.1135 80.0503 16.0655 80.1783 16.0122C80.3169 15.9589 80.4076 15.8842 80.4503 15.7882C80.5036 15.6815 80.5356 15.6015 80.5463 15.5482C80.5569 15.4842 80.5623 15.3722 80.5623 15.2122C80.5623 14.9562 80.3489 14.6895 79.9223 14.4122C79.5063 14.1242 78.9943 13.9802 78.3863 13.9802C77.9596 13.9802 77.5969 14.0442 77.2983 14.1722C77.0103 14.2895 76.8129 14.4229 76.7063 14.5722C76.6103 14.7109 76.5463 14.8442 76.5143 14.9722L76.4663 15.1482ZM77.4423 17.7882C76.5143 17.8949 76.0503 18.4015 76.0503 19.3082C76.0503 19.6602 76.2903 19.9375 76.7703 20.1402C77.2609 20.3429 77.8476 20.4015 78.5303 20.3162C79.1063 20.2415 79.5863 20.0549 79.9703 19.7562C80.3649 19.4575 80.5623 19.1909 80.5623 18.9562V17.2602C80.2529 17.3882 79.2129 17.5642 77.4423 17.7882ZM84.78 9.75617C84.78 9.45747 84.8973 9.24417 85.132 9.11617C85.3667 8.9775 85.6013 8.97217 85.836 9.10017C86.0707 9.2175 86.188 9.43617 86.188 9.75617V20.9882C86.188 21.2975 86.0707 21.5109 85.836 21.6282C85.6013 21.7562 85.3667 21.7562 85.132 21.6282C84.8973 21.5002 84.78 21.2869 84.78 20.9882V9.75617ZM88.4288 9.74017C88.4288 9.43087 88.5461 9.2175 88.7808 9.10017C89.0154 8.97217 89.2501 8.97217 89.4848 9.10017C89.7301 9.22817 89.8528 9.44147 89.8528 9.74017V16.4282L94.3008 12.4602C94.5141 12.2255 94.7594 12.1402 95.0368 12.2042C95.3141 12.2575 95.4901 12.3962 95.5648 12.6202C95.6501 12.8442 95.5968 13.0789 95.4048 13.3242L92.5248 15.9002L95.9167 20.4922C96.1088 20.7802 96.1834 21.0149 96.1408 21.1962C96.0981 21.3775 96.0021 21.5109 95.8528 21.5962C95.7141 21.6922 95.5221 21.6922 95.2768 21.5962C95.0421 21.5109 94.8234 21.3349 94.6208 21.0682L91.4688 16.8922L89.8528 18.2362V21.0202C89.8528 21.3189 89.7301 21.5269 89.4848 21.6442C89.2501 21.7722 89.0154 21.7722 88.7808 21.6442C88.5461 21.5162 88.4288 21.3082 88.4288 21.0202V9.74017ZM97.3506 9.70817C97.3506 9.39887 97.468 9.19084 97.7026 9.08417C97.9373 8.96684 98.172 8.97217 98.4066 9.10017C98.652 9.2175 98.7746 9.42017 98.7746 9.70817V20.0762H105.095C105.404 20.0762 105.623 20.1829 105.751 20.3962C105.889 20.6202 105.895 20.8389 105.767 21.0522C105.639 21.2762 105.415 21.3882 105.095 21.3882H97.3506V9.70817ZM114.717 17.2442C114.717 18.5669 114.354 19.6442 113.629 20.4762C112.914 21.3082 111.97 21.7242 110.797 21.7242C109.485 21.7242 108.482 21.2975 107.789 20.4442C107.106 19.5909 106.765 18.5562 106.765 17.3402C106.765 16.0602 107.117 14.9509 107.821 14.0122C108.536 13.0629 109.528 12.5882 110.797 12.5882C111.672 12.5882 112.413 12.8175 113.021 13.2762C113.629 13.7242 114.061 14.2895 114.317 14.9722C114.584 15.6442 114.717 16.4015 114.717 17.2442ZM108.253 17.3242C108.253 18.1669 108.461 18.8922 108.877 19.5002C109.304 20.0975 109.938 20.3962 110.781 20.3962C111.613 20.3962 112.226 20.0975 112.621 19.5002C113.026 18.8922 113.229 18.1349 113.229 17.2282C113.229 16.8442 113.192 16.4709 113.117 16.1082C113.042 15.7455 112.92 15.3935 112.749 15.0522C112.578 14.7002 112.328 14.4175 111.997 14.2042C111.666 13.9909 111.272 13.8842 110.813 13.8842C110.354 13.8842 109.949 13.9909 109.597 14.2042C109.256 14.4175 108.989 14.7002 108.797 15.0522C108.616 15.3935 108.477 15.7562 108.381 16.1402C108.296 16.5242 108.253 16.9189 108.253 17.3242ZM122.383 20.0922V19.5642C122.213 19.8842 121.882 20.1562 121.391 20.3802C120.911 20.6042 120.458 20.7162 120.031 20.7162C119.519 20.7162 119.029 20.6415 118.559 20.4922C118.09 20.3429 117.658 20.1189 117.263 19.8202C116.879 19.5215 116.57 19.1162 116.335 18.6042C116.111 18.0922 115.999 17.5055 115.999 16.8442C115.999 15.5002 116.373 14.4549 117.119 13.7082C117.866 12.9615 118.821 12.5882 119.983 12.5882C120.367 12.5882 120.757 12.6682 121.151 12.8282C121.557 12.9882 121.866 13.1482 122.079 13.3082L122.383 13.5482V13.0042C122.383 12.6949 122.501 12.4815 122.735 12.3642C122.981 12.2362 123.221 12.2362 123.455 12.3642C123.69 12.4922 123.807 12.7055 123.807 13.0042V19.6122C123.807 20.0602 123.781 20.4602 123.727 20.8122C123.674 21.1642 123.573 21.5215 123.423 21.8842C123.274 22.2469 123.077 22.5509 122.831 22.7962C122.586 23.0415 122.25 23.2495 121.823 23.4202C121.407 23.6015 120.917 23.7082 120.351 23.7402C119.701 23.7829 119.119 23.7455 118.607 23.6282C118.106 23.5109 117.722 23.3509 117.455 23.1482C117.199 22.9562 116.991 22.7589 116.831 22.5562C116.671 22.3535 116.57 22.1775 116.527 22.0282L116.463 21.8042C116.399 21.5589 116.469 21.3402 116.671 21.1482C116.885 20.9562 117.119 20.8869 117.375 20.9402C117.642 20.9935 117.818 21.1909 117.903 21.5322C117.925 21.5749 117.962 21.6335 118.015 21.7082C118.079 21.7829 118.197 21.8949 118.367 22.0442C118.538 22.1935 118.794 22.3055 119.135 22.3802C119.477 22.4655 119.866 22.4922 120.303 22.4602C121.69 22.3429 122.383 21.5535 122.383 20.0922ZM120.015 13.9322C119.173 13.9322 118.538 14.1935 118.111 14.7162C117.685 15.2389 117.471 15.9162 117.471 16.7482C117.471 17.2389 117.546 17.6655 117.695 18.0282C117.855 18.3909 118.063 18.6682 118.319 18.8602C118.575 19.0522 118.842 19.1909 119.119 19.2762C119.397 19.3615 119.69 19.4042 119.999 19.4042C120.725 19.4042 121.295 19.1482 121.711 18.6362C122.127 18.1135 122.335 17.5162 122.335 16.8442C122.335 16.0229 122.122 15.3349 121.695 14.7802C121.269 14.2149 120.709 13.9322 120.015 13.9322Z" fill="#8A9455"/>
<path d="M12 8C12 12.118 9.66667 15.5093 6.66667 15.9513V22H17.3333V16.0307H14.182C13.6906 16.0309 13.2135 15.8652 12.8279 15.5604C12.4424 15.2557 12.1711 14.8297 12.0578 14.3515C11.9446 13.8733 11.9961 13.3709 12.204 12.9256C12.4119 12.4803 12.764 12.1182 13.2033 11.898C13.009 11.2449 13.0662 10.5428 13.3637 9.92979C13.6612 9.3168 14.1774 8.8374 14.8107 8.586C14.7003 8.10639 14.6996 7.60807 14.8084 7.12813C14.9173 6.64819 15.133 6.19898 15.4395 5.81394C15.746 5.4289 16.1354 5.11795 16.5788 4.90423C17.0221 4.6905 17.5079 4.57951 18 4.57951C18.4921 4.57951 18.9779 4.6905 19.4212 4.90423C19.8646 5.11795 20.254 5.4289 20.5605 5.81394C20.867 6.19898 21.0827 6.64819 21.1916 7.12813C21.3005 7.60807 21.2997 8.10639 21.1893 8.586C21.8226 8.8374 22.3388 9.3168 22.6363 9.92979C22.9338 10.5428 22.991 11.2449 22.7967 11.898C23.236 12.1182 23.5881 12.4803 23.796 12.9256C24.0039 13.3709 24.0554 13.8733 23.9422 14.3515C23.8289 14.8297 23.5576 15.2557 23.1721 15.5604C22.7865 15.8652 22.3094 16.0309 21.818 16.0307H18.6667V22H23C23.2652 22 23.5196 22.1054 23.7071 22.2929C23.8946 22.4804 24 22.7348 24 23C24 23.2652 23.8946 23.5196 23.7071 23.7071C23.5196 23.8946 23.2652 24 23 24H1C0.734784 24 0.480429 23.8946 0.292893 23.7071C0.105357 23.5196 0 23.2652 0 23C0 22.7348 0.105357 22.4804 0.292893 22.2929C0.480429 22.1054 0.734784 22 1 22H5.33333V15.9513C2.33333 15.5093 0 12.118 0 8C0 3.582 2.68667 0 6 0C9.31333 0 12 3.582 12 8Z" fill="#8A9455"/>
<path d="M12 8C12 12.118 9.66667 15.5093 6.66667 15.9513V22H17.3333V16.0307H14.182C13.6906 16.0309 13.2135 15.8652 12.8279 15.5604C12.4424 15.2557 12.1711 14.8297 12.0578 14.3515C11.9446 13.8733 11.9961 13.3709 12.204 12.9256C12.4119 12.4803 12.764 12.1182 13.2033 11.898C13.009 11.2449 13.0662 10.5428 13.3637 9.92979C13.6612 9.3168 14.1774 8.8374 14.8107 8.586C14.7003 8.10639 14.6996 7.60807 14.8084 7.12813C14.9173 6.64819 15.133 6.19898 15.4395 5.81394C15.746 5.4289 16.1354 5.11795 16.5788 4.90423C17.0221 4.6905 17.5079 4.57951 18 4.57951C18.4921 4.57951 18.9779 4.6905 19.4212 4.90423C19.8646 5.11795 20.254 5.4289 20.5605 5.81394C20.867 6.19898 21.0827 6.64819 21.1916 7.12813C21.3005 7.60807 21.2997 8.10639 21.1893 8.586C21.8226 8.8374 22.3388 9.3168 22.6363 9.92979C22.9338 10.5428 22.991 11.2449 22.7967 11.898C23.236 12.1182 23.5881 12.4803 23.796 12.9256C24.0039 13.3709 24.0554 13.8733 23.9422 14.3515C23.8289 14.8297 23.5576 15.2557 23.1721 15.5604C22.7865 15.8652 22.3094 16.0309 21.818 16.0307H18.6667V22H23C23.2652 22 23.5196 22.1054 23.7071 22.2929C23.8946 22.4804 24 22.7348 24 23C24 23.2652 23.8946 23.5196 23.7071 23.7071C23.5196 23.8946 23.2652 24 23 24H1C0.734784 24 0.480429 23.8946 0.292893 23.7071C0.105357 23.5196 0 23.2652 0 23C0 22.7348 0.105357 22.4804 0.292893 22.2929C0.480429 22.1054 0.734784 22 1 22H5.33333V15.9513C2.33333 15.5093 0 12.118 0 8C0 3.582 2.68667 0 6 0C9.31333 0 12 3.582 12 8Z" fill="#8A9455"/>
</svg>
