<svg width="32" height="32" viewBox="0 0 32 32" fill="none" xmlns="http://www.w3.org/2000/svg">
<path d="M16.736 10.6667C16.3824 10.6667 16.0433 10.8072 15.7932 11.0572C15.5432 11.3073 15.4027 11.6464 15.4027 12C15.4027 12.3536 15.5432 12.6928 15.7932 12.9428C16.0433 13.1929 16.3824 13.3334 16.736 13.3334H22.0693C22.423 13.3334 22.7621 13.1929 23.0122 12.9428C23.2622 12.6928 23.4027 12.3536 23.4027 12C23.4027 11.6464 23.2622 11.3073 23.0122 11.0572C22.7621 10.8072 22.423 10.6667 22.0693 10.6667H16.736ZM16.736 22.6667C16.3824 22.6667 16.0433 22.8072 15.7932 23.0572C15.5432 23.3073 15.4027 23.6464 15.4027 24C15.4027 24.3536 15.5432 24.6928 15.7932 24.9428C16.0433 25.1929 16.3824 25.3334 16.736 25.3334H22.0693C22.423 25.3334 22.7621 25.1929 23.0122 24.9428C23.2622 24.6928 23.4027 24.3536 23.4027 24C23.4027 23.6464 23.2622 23.3073 23.0122 23.0572C22.7621 22.8072 22.423 22.6667 22.0693 22.6667H16.736Z" fill="#9BA0A6" fill-opacity="0.5"/>
<path d="M16.736 6.66666C16.3824 6.66666 16.0433 6.80713 15.7932 7.05718C15.5432 7.30723 15.4027 7.64637 15.4027 7.99999C15.4027 8.35361 15.5432 8.69275 15.7932 8.9428C16.0433 9.19285 16.3824 9.33332 16.736 9.33332H27.4027C27.7563 9.33332 28.0954 9.19285 28.3455 8.9428C28.5955 8.69275 28.736 8.35361 28.736 7.99999C28.736 7.64637 28.5955 7.30723 28.3455 7.05718C28.0954 6.80713 27.7563 6.66666 27.4027 6.66666H16.736ZM16.736 18.6667C16.3824 18.6667 16.0433 18.8071 15.7932 19.0572C15.5432 19.3072 15.4027 19.6464 15.4027 20C15.4027 20.3536 15.5432 20.6928 15.7932 20.9428C16.0433 21.1928 16.3824 21.3333 16.736 21.3333H27.4027C27.7563 21.3333 28.0954 21.1928 28.3455 20.9428C28.5955 20.6928 28.736 20.3536 28.736 20C28.736 19.6464 28.5955 19.3072 28.3455 19.0572C28.0954 18.8071 27.7563 18.6667 27.4027 18.6667H16.736Z" fill="#9BA0A6" fill-opacity="0.8"/>
<path d="M4.59734 5.336C4.24372 5.336 3.90458 5.47647 3.65453 5.72652C3.40448 5.97657 3.26401 6.31571 3.26401 6.66933V13.336C3.26401 13.6896 3.40448 14.0288 3.65453 14.2788C3.90458 14.5289 4.24372 14.6693 4.59734 14.6693H11.264C11.6176 14.6693 11.9568 14.5289 12.2068 14.2788C12.4569 14.0288 12.5973 13.6896 12.5973 13.336V6.66933C12.5973 6.31571 12.4569 5.97657 12.2068 5.72652C11.9568 5.47647 11.6176 5.336 11.264 5.336H4.59734ZM4.59734 17.3307C4.24372 17.3307 3.90458 17.4711 3.65453 17.7212C3.40448 17.9712 3.26401 18.3104 3.26401 18.664V25.3307C3.26401 25.6843 3.40448 26.0234 3.65453 26.2735C3.90458 26.5235 4.24372 26.664 4.59734 26.664H11.264C11.6176 26.664 11.9568 26.5235 12.2068 26.2735C12.4569 26.0234 12.5973 25.6843 12.5973 25.3307V18.664C12.5973 18.3104 12.4569 17.9712 12.2068 17.7212C11.9568 17.4711 11.6176 17.3307 11.264 17.3307H4.59734Z" fill="#9BA0A6"/>
</svg>
