<svg width="24" height="24" viewBox="0 0 24 24" fill="none" xmlns="http://www.w3.org/2000/svg">
<path d="M12 8C12 12.118 9.66667 15.5093 6.66667 15.9513V22H17.3333V16.0307H14.182C13.6906 16.0309 13.2135 15.8652 12.8279 15.5604C12.4424 15.2557 12.1711 14.8297 12.0578 14.3515C11.9446 13.8733 11.9961 13.3709 12.204 12.9256C12.4119 12.4803 12.764 12.1182 13.2033 11.898C13.009 11.2449 13.0662 10.5428 13.3637 9.92979C13.6612 9.3168 14.1774 8.8374 14.8107 8.586C14.7003 8.10639 14.6996 7.60807 14.8084 7.12813C14.9173 6.64819 15.133 6.19898 15.4395 5.81394C15.746 5.4289 16.1354 5.11795 16.5788 4.90423C17.0221 4.6905 17.5079 4.57951 18 4.57951C18.4921 4.57951 18.9779 4.6905 19.4212 4.90423C19.8646 5.11795 20.254 5.4289 20.5605 5.81394C20.867 6.19898 21.0827 6.64819 21.1916 7.12813C21.3004 7.60807 21.2997 8.10639 21.1893 8.586C21.8226 8.8374 22.3388 9.3168 22.6363 9.92979C22.9338 10.5428 22.991 11.2449 22.7967 11.898C23.236 12.1182 23.5881 12.4803 23.796 12.9256C24.0039 13.3709 24.0554 13.8733 23.9422 14.3515C23.8289 14.8297 23.5576 15.2557 23.1721 15.5604C22.7865 15.8652 22.3094 16.0309 21.818 16.0307H18.6667V22H23C23.2652 22 23.5196 22.1054 23.7071 22.2929C23.8946 22.4804 24 22.7348 24 23C24 23.2652 23.8946 23.5196 23.7071 23.7071C23.5196 23.8946 23.2652 24 23 24H1C0.734784 24 0.480429 23.8946 0.292893 23.7071C0.105357 23.5196 0 23.2652 0 23C0 22.7348 0.105357 22.4804 0.292893 22.2929C0.480429 22.1054 0.734784 22 1 22H5.33333V15.9513C2.33333 15.5093 0 12.118 0 8C0 3.582 2.68667 0 6 0C9.31333 0 12 3.582 12 8Z" fill="#8A9455"/>
<path d="M12 8C12 12.118 9.66667 15.5093 6.66667 15.9513V22H17.3333V16.0307H14.182C13.6906 16.0309 13.2135 15.8652 12.8279 15.5604C12.4424 15.2557 12.1711 14.8297 12.0578 14.3515C11.9446 13.8733 11.9961 13.3709 12.204 12.9256C12.4119 12.4803 12.764 12.1182 13.2033 11.898C13.009 11.2449 13.0662 10.5428 13.3637 9.92979C13.6612 9.3168 14.1774 8.8374 14.8107 8.586C14.7003 8.10639 14.6996 7.60807 14.8084 7.12813C14.9173 6.64819 15.133 6.19898 15.4395 5.81394C15.746 5.4289 16.1354 5.11795 16.5788 4.90423C17.0221 4.6905 17.5079 4.57951 18 4.57951C18.4921 4.57951 18.9779 4.6905 19.4212 4.90423C19.8646 5.11795 20.254 5.4289 20.5605 5.81394C20.867 6.19898 21.0827 6.64819 21.1916 7.12813C21.3004 7.60807 21.2997 8.10639 21.1893 8.586C21.8226 8.8374 22.3388 9.3168 22.6363 9.92979C22.9338 10.5428 22.991 11.2449 22.7967 11.898C23.236 12.1182 23.5881 12.4803 23.796 12.9256C24.0039 13.3709 24.0554 13.8733 23.9422 14.3515C23.8289 14.8297 23.5576 15.2557 23.1721 15.5604C22.7865 15.8652 22.3094 16.0309 21.818 16.0307H18.6667V22H23C23.2652 22 23.5196 22.1054 23.7071 22.2929C23.8946 22.4804 24 22.7348 24 23C24 23.2652 23.8946 23.5196 23.7071 23.7071C23.5196 23.8946 23.2652 24 23 24H1C0.734784 24 0.480429 23.8946 0.292893 23.7071C0.105357 23.5196 0 23.2652 0 23C0 22.7348 0.105357 22.4804 0.292893 22.2929C0.480429 22.1054 0.734784 22 1 22H5.33333V15.9513C2.33333 15.5093 0 12.118 0 8C0 3.582 2.68667 0 6 0C9.31333 0 12 3.582 12 8Z" fill="#8A9455"/>
</svg>
