<svg width="32" height="32" viewBox="0 0 32 32" fill="none" xmlns="http://www.w3.org/2000/svg">
<path d="M15.3333 9.33333C16.2174 9.33333 17.0652 9.68452 17.6904 10.3096C18.3155 10.9348 18.6667 11.7826 18.6667 12.6667C18.6667 13.1044 18.5804 13.5379 18.4129 13.9423C18.2454 14.3467 17.9999 14.7142 17.6904 15.0237C17.3808 15.3332 17.0134 15.5788 16.6089 15.7463C16.2045 15.9138 15.7711 16 15.3333 16C14.4493 16 13.6014 15.6488 12.9763 15.0237C12.3512 14.3986 12 13.5507 12 12.6667C12 11.7826 12.3512 10.9348 12.9763 10.3096C13.6014 9.68452 14.4493 9.33333 15.3333 9.33333ZM15.3333 10.6667C14.8029 10.6667 14.2942 10.8774 13.9191 11.2525C13.544 11.6275 13.3333 12.1362 13.3333 12.6667C13.3333 13.1971 13.544 13.7058 13.9191 14.0809C14.2942 14.456 14.8029 14.6667 15.3333 14.6667C15.8638 14.6667 16.3725 14.456 16.7475 14.0809C17.1226 13.7058 17.3333 13.1971 17.3333 12.6667C17.3333 12.1362 17.1226 11.6275 16.7475 11.2525C16.3725 10.8774 15.8638 10.6667 15.3333 10.6667ZM9.06667 16.48L15.3333 26.7867L21.6 16.48C22.28 15.3333 22.6667 14.0667 22.6667 12.6667C22.6667 10.7217 21.8941 8.85648 20.5188 7.48122C19.1435 6.10595 17.2783 5.33333 15.3333 5.33333C13.3884 5.33333 11.5231 6.10595 10.1479 7.48122C8.77262 8.85648 8 10.7217 8 12.6667C8 14.0667 8.38667 15.3333 9.06667 16.48ZM22.7333 17.1733L15.3333 29.3333L7.93333 17.1733C7.13333 15.8533 6.66667 14.32 6.66667 12.6667C6.66667 10.3681 7.57976 8.16372 9.20507 6.53841C10.8304 4.91309 13.0348 4 15.3333 4C17.6319 4 19.8363 4.91309 21.4616 6.53841C23.0869 8.16372 24 10.3681 24 12.6667C24 14.32 23.5333 15.8533 22.7333 17.1733Z" fill="#9BA0A6"/>
</svg>
