<svg width="32" height="32" viewBox="0 0 32 32" fill="none" xmlns="http://www.w3.org/2000/svg">
<path d="M31.4738 23.8412C31.4316 23.7156 31.3413 23.6119 31.2227 23.5529C31.1041 23.4938 30.9669 23.4842 30.8413 23.5262L28.2538 24.3887L24.4475 16.7762C24.4059 16.6932 24.342 16.6233 24.263 16.5745C24.184 16.5257 24.0929 16.4999 24 16.5H13.5V12.5187C13.665 12.5075 13.8313 12.5 14 12.5H21C21.1326 12.5 21.2598 12.4473 21.3536 12.3535C21.4473 12.2598 21.5 12.1326 21.5 12C21.5 11.8674 21.4473 11.7402 21.3536 11.6464C21.2598 11.5527 21.1326 11.5 21 11.5H14C13.8325 11.5 13.665 11.5 13.5 11.5162V9.46374C14.3758 9.33733 15.1712 8.88388 15.7261 8.19466C16.2811 7.50543 16.5544 6.63159 16.491 5.74899C16.4276 4.86639 16.0323 4.04055 15.3846 3.43768C14.7369 2.8348 13.8849 2.49963 13 2.49963C12.1151 2.49963 11.2631 2.8348 10.6154 3.43768C9.96768 4.04055 9.57236 4.86639 9.50899 5.74899C9.44562 6.63159 9.71891 7.50543 10.2739 8.19466C10.8288 8.88388 11.6242 9.33733 12.5 9.46374V11.635C10.4113 12.0118 8.53905 13.1563 7.25151 14.8436C5.96396 16.531 5.35427 18.6389 5.5423 20.753C5.73033 22.8671 6.70249 24.8344 8.26761 26.268C9.83272 27.7016 11.8776 28.4978 14 28.5C17.965 28.5 21.5338 25.8187 22.4838 22.125C22.5113 21.9986 22.4889 21.8665 22.4211 21.7564C22.3533 21.6462 22.2455 21.5666 22.1203 21.5343C21.9951 21.5019 21.8623 21.5193 21.7496 21.5829C21.637 21.6464 21.5533 21.7511 21.5163 21.875C20.6775 25.135 17.5163 27.5 14 27.5C12.1411 27.5003 10.3484 26.8104 8.9694 25.5639C7.5904 24.3174 6.72343 22.6032 6.5366 20.7538C6.34977 18.9043 6.85641 17.0514 7.95825 15.5543C9.06009 14.0572 10.6786 13.0227 12.5 12.6512V17C12.5 17.1326 12.5527 17.2598 12.6464 17.3535C12.7402 17.4473 12.8674 17.5 13 17.5H23.6913L27.5525 25.2237C27.5941 25.3068 27.658 25.3767 27.737 25.4254C27.816 25.4742 27.9071 25.5001 28 25.5C28.0536 25.5 28.1068 25.4911 28.1575 25.4737L31.1575 24.4737C31.2198 24.453 31.2774 24.4201 31.327 24.3771C31.3766 24.3341 31.4173 24.2817 31.4466 24.223C31.476 24.1643 31.4935 24.1003 31.4982 24.0348C31.5028 23.9693 31.4945 23.9035 31.4738 23.8412ZM10.5 5.99999C10.5 5.50553 10.6466 5.02218 10.9213 4.61106C11.196 4.19994 11.5865 3.87951 12.0433 3.69029C12.5001 3.50107 13.0028 3.45156 13.4877 3.54802C13.9727 3.64449 14.4181 3.88259 14.7678 4.23222C15.1174 4.58185 15.3555 5.02731 15.452 5.51226C15.5484 5.99721 15.4989 6.49988 15.3097 6.95669C15.1205 7.41351 14.8001 7.80396 14.3889 8.07866C13.9778 8.35336 13.4945 8.49999 13 8.49999C12.337 8.49999 11.7011 8.23659 11.2322 7.76775C10.7634 7.29891 10.5 6.66303 10.5 5.99999Z" fill="#9BA0A6"/>
</svg>
