<svg width="32" height="32" viewBox="0 0 32 32" fill="none" xmlns="http://www.w3.org/2000/svg">
<path d="M16.6667 16.6667H18C18.6128 16.6667 19.2197 16.546 19.7859 16.3114C20.352 16.0769 20.8665 15.7332 21.2998 15.2998C21.7332 14.8665 22.0769 14.352 22.3114 13.7858C22.546 13.2197 22.6667 12.6128 22.6667 12C22.6667 11.3872 22.546 10.7803 22.3114 10.2141C22.0769 9.64795 21.7332 9.1335 21.2998 8.70016C20.8665 8.26682 20.352 7.92307 19.7859 7.68855C19.2197 7.45403 18.6128 7.33332 18 7.33332H12V12M12 25.3333V16M5.15733 5.15732L26.8427 26.8427M16 31.3333C7.532 31.3333 0.666664 24.468 0.666664 16C0.666664 7.53199 7.532 0.666656 16 0.666656C24.468 0.666656 31.3333 7.53199 31.3333 16C31.3333 24.468 24.468 31.3333 16 31.3333Z" stroke="#9BA0A6" stroke-width="1.33333"/>
</svg>
