<svg width="32" height="32" viewBox="0 0 32 32" fill="none" xmlns="http://www.w3.org/2000/svg">
<path d="M16.736 10.6667C16.3824 10.6667 16.0432 10.8072 15.7932 11.0572C15.5431 11.3073 15.4027 11.6464 15.4027 12C15.4027 12.3536 15.5431 12.6928 15.7932 12.9428C16.0432 13.1929 16.3824 13.3334 16.736 13.3334H22.0693C22.423 13.3334 22.7621 13.1929 23.0121 12.9428C23.2622 12.6928 23.4027 12.3536 23.4027 12C23.4027 11.6464 23.2622 11.3073 23.0121 11.0572C22.7621 10.8072 22.423 10.6667 22.0693 10.6667H16.736ZM16.736 22.6667C16.3824 22.6667 16.0432 22.8072 15.7932 23.0572C15.5431 23.3073 15.4027 23.6464 15.4027 24C15.4027 24.3536 15.5431 24.6928 15.7932 24.9428C16.0432 25.1929 16.3824 25.3334 16.736 25.3334H22.0693C22.423 25.3334 22.7621 25.1929 23.0121 24.9428C23.2622 24.6928 23.4027 24.3536 23.4027 24C23.4027 23.6464 23.2622 23.3073 23.0121 23.0572C22.7621 22.8072 22.423 22.6667 22.0693 22.6667H16.736Z" fill="#8A9455" fill-opacity="0.5"/>
<path d="M16.736 6.66669C16.3824 6.66669 16.0432 6.80716 15.7932 7.05721C15.5431 7.30726 15.4027 7.6464 15.4027 8.00002C15.4027 8.35364 15.5431 8.69278 15.7932 8.94283C16.0432 9.19288 16.3824 9.33335 16.736 9.33335H27.4027C27.7563 9.33335 28.0954 9.19288 28.3455 8.94283C28.5955 8.69278 28.736 8.35364 28.736 8.00002C28.736 7.6464 28.5955 7.30726 28.3455 7.05721C28.0954 6.80716 27.7563 6.66669 27.4027 6.66669H16.736ZM16.736 18.6667C16.3824 18.6667 16.0432 18.8072 15.7932 19.0572C15.5431 19.3073 15.4027 19.6464 15.4027 20C15.4027 20.3536 15.5431 20.6928 15.7932 20.9428C16.0432 21.1929 16.3824 21.3334 16.736 21.3334H27.4027C27.7563 21.3334 28.0954 21.1929 28.3455 20.9428C28.5955 20.6928 28.736 20.3536 28.736 20C28.736 19.6464 28.5955 19.3073 28.3455 19.0572C28.0954 18.8072 27.7563 18.6667 27.4027 18.6667H16.736Z" fill="#8A9455" fill-opacity="0.8"/>
<path d="M4.59733 5.336C4.2437 5.336 3.90457 5.47647 3.65452 5.72652C3.40447 5.97657 3.26399 6.31571 3.26399 6.66933V13.336C3.26399 13.6896 3.40447 14.0288 3.65452 14.2788C3.90457 14.5289 4.2437 14.6693 4.59733 14.6693H11.264C11.6176 14.6693 11.9568 14.5289 12.2068 14.2788C12.4568 14.0288 12.5973 13.6896 12.5973 13.336V6.66933C12.5973 6.31571 12.4568 5.97657 12.2068 5.72652C11.9568 5.47647 11.6176 5.336 11.264 5.336H4.59733ZM4.59733 17.3307C4.2437 17.3307 3.90457 17.4711 3.65452 17.7212C3.40447 17.9712 3.26399 18.3104 3.26399 18.664V25.3307C3.26399 25.6843 3.40447 26.0234 3.65452 26.2735C3.90457 26.5235 4.2437 26.664 4.59733 26.664H11.264C11.6176 26.664 11.9568 26.5235 12.2068 26.2735C12.4568 26.0234 12.5973 25.6843 12.5973 25.3307V18.664C12.5973 18.3104 12.4568 17.9712 12.2068 17.7212C11.9568 17.4711 11.6176 17.3307 11.264 17.3307H4.59733Z" fill="#8A9455"/>
</svg>
